<svg xmlns="http://www.w3.org/2000/svg" xmlns:xlink="http://www.w3.org/1999/xlink" viewBox="0 0 1309 166"><defs><style>.cls-1{fill:#fff;}.cls-2{clip-path:url(#clip-path);}.cls-3{fill:url(#linear-gradient);}</style><clipPath id="clip-path"><path class="cls-1" d="M296.14,0c35.95,0,57.11,21.42,57.11,59.43s-21.16,60.35-57.11,60.35H250.41V0ZM275.47,99h17.68c22.42,0,34.54-13.61,34.54-39.51,0-25.07-12.46-38.85-34.54-38.85H275.47Zm173-6.48c-2.65,17.44-18.59,29.14-40.59,29.14-27.39,0-43.83-17.52-43.83-46S380.64,28.89,407,28.89c25.9,0,42.25,17.51,42.25,44.57v7.39H387.87v1.49c0,12.7,8.05,21.42,20.42,21.42,8.88,0,15.68-4.4,17.93-11.21ZM388.12,66h37.76c-.49-11.37-7.88-19.17-18.67-19.17C396.58,46.82,389,54.87,388.12,66Zm123.1,53.79h-27.4L453,30.8h26l18.51,67.56h.5L516.45,30.8h25.31ZM628.84,92.55c-2.66,17.44-18.6,29.14-40.59,29.14-27.4,0-43.83-17.52-43.83-46S561,28.89,587.33,28.89c25.9,0,42.25,17.51,42.25,44.57v7.39H568.24v1.49c0,12.7,8,21.42,20.42,21.42,8.88,0,15.69-4.4,17.93-11.21ZM568.49,66h37.77c-.5-11.37-7.89-19.17-18.68-19.17C577,46.82,569.32,54.87,568.49,66ZM642.62,0h24.24V119.78H642.62ZM680,75.21c0-28.81,17.43-46.32,44.08-46.32s44.07,17.43,44.07,46.32c0,29.3-17.18,46.48-44.07,46.48S680,104.42,680,75.21Zm63.5.08c0-17.68-7.64-27.89-19.42-27.89s-19.51,10.21-19.51,27.89c0,17.84,7.55,27.89,19.51,27.89S743.47,93.13,743.47,75.29Zm125.51,0c0,28.64-13.78,45.9-36,45.9-13,0-22.91-6.31-27.64-16.35h-.5v44H780.58V30.8h23.9V46.32h.5c4.81-10.46,14.69-16.94,27.56-16.94C855.12,29.38,869,46.57,869,75.29Zm-24.82,0c0-16.11-7.64-26.48-19.76-26.48-11.87,0-19.67,10.54-19.67,26.48,0,16.1,7.8,26.39,19.67,26.39C836.52,101.68,844.16,91.47,844.16,75.29ZM962.61,92.55C960,110,944,121.69,922,121.69c-27.39,0-43.83-17.52-43.83-46s16.6-46.81,42.92-46.81c25.9,0,42.25,17.51,42.25,44.57v7.39H902v1.49c0,12.7,8.05,21.42,20.42,21.42,8.88,0,15.68-4.4,17.93-11.21ZM902.27,66H940c-.49-11.37-7.88-19.17-18.67-19.17C910.73,46.82,903.1,54.87,902.27,66ZM975.81,30.8h23.41v16h.5c3.15-11.29,10.7-17.44,21.16-17.44a24.54,24.54,0,0,1,6.89.92V51.63a24.93,24.93,0,0,0-8.8-1.41c-12,0-18.92,7.3-18.92,19.84v49.72H975.81Zm67.32,78c0-7.3,6-13,13.53-13s13.53,5.73,13.53,13-6,13-13.53,13S1043.13,116.13,1043.13,108.82ZM1069.11,0l-2,80.35H1046.2l-2-80.35Z"/></clipPath><linearGradient id="linear-gradient" x1="823.36" y1="446.38" x2="456" y2="-189.92" gradientUnits="userSpaceOnUse"><stop offset="0" stop-color="#800835"/><stop offset="1" stop-color="#ee4540"/></linearGradient></defs><g id="Layer_2" data-name="Layer 2"><g id="Layer_1-2" data-name="Layer 1"><path class="cls-1" d="M1075.19,138.83C989,118,898.61,77,811.41,60.19c-89.74-17.34-183.33-16.33-273.2.39-63.1,11.73-124.36,31.07-187.63,41.86A710.84,710.84,0,0,1,0,73.35V166H1309V141.8C1235,164.92,1151.6,157.31,1075.19,138.83Z"/><path class="cls-1" d="M296.14,0c35.95,0,57.11,21.42,57.11,59.43s-21.16,60.35-57.11,60.35H250.41V0ZM275.47,99h17.68c22.42,0,34.54-13.61,34.54-39.51,0-25.07-12.46-38.85-34.54-38.85H275.47Zm173-6.48c-2.65,17.44-18.59,29.14-40.59,29.14-27.39,0-43.83-17.52-43.83-46S380.64,28.89,407,28.89c25.9,0,42.25,17.51,42.25,44.57v7.39H387.87v1.49c0,12.7,8.05,21.42,20.42,21.42,8.88,0,15.68-4.4,17.93-11.21ZM388.12,66h37.76c-.49-11.37-7.88-19.17-18.67-19.17C396.58,46.82,389,54.87,388.12,66Zm123.1,53.79h-27.4L453,30.8h26l18.51,67.56h.5L516.45,30.8h25.31ZM628.84,92.55c-2.66,17.44-18.6,29.14-40.59,29.14-27.4,0-43.83-17.52-43.83-46S561,28.89,587.33,28.89c25.9,0,42.25,17.51,42.25,44.57v7.39H568.24v1.49c0,12.7,8,21.42,20.42,21.42,8.88,0,15.69-4.4,17.93-11.21ZM568.49,66h37.77c-.5-11.37-7.89-19.17-18.68-19.17C577,46.82,569.32,54.87,568.49,66ZM642.62,0h24.24V119.78H642.62ZM680,75.21c0-28.81,17.43-46.32,44.08-46.32s44.07,17.43,44.07,46.32c0,29.3-17.18,46.48-44.07,46.48S680,104.42,680,75.21Zm63.5.08c0-17.68-7.64-27.89-19.42-27.89s-19.51,10.21-19.51,27.89c0,17.84,7.55,27.89,19.51,27.89S743.47,93.13,743.47,75.29Zm125.51,0c0,28.64-13.78,45.9-36,45.9-13,0-22.91-6.31-27.64-16.35h-.5v44H780.58V30.8h23.9V46.32h.5c4.81-10.46,14.69-16.94,27.56-16.94C855.12,29.38,869,46.57,869,75.29Zm-24.82,0c0-16.11-7.64-26.48-19.76-26.48-11.87,0-19.67,10.54-19.67,26.48,0,16.1,7.8,26.39,19.67,26.39C836.52,101.68,844.16,91.47,844.16,75.29ZM962.61,92.55C960,110,944,121.69,922,121.69c-27.39,0-43.83-17.52-43.83-46s16.6-46.81,42.92-46.81c25.9,0,42.25,17.51,42.25,44.57v7.39H902v1.49c0,12.7,8.05,21.42,20.42,21.42,8.88,0,15.68-4.4,17.93-11.21ZM902.27,66H940c-.49-11.37-7.88-19.17-18.67-19.17C910.73,46.82,903.1,54.87,902.27,66ZM975.81,30.8h23.41v16h.5c3.15-11.29,10.7-17.44,21.16-17.44a24.54,24.54,0,0,1,6.89.92V51.63a24.93,24.93,0,0,0-8.8-1.41c-12,0-18.92,7.3-18.92,19.84v49.72H975.81Zm67.32,78c0-7.3,6-13,13.53-13s13.53,5.73,13.53,13-6,13-13.53,13S1043.13,116.13,1043.13,108.82ZM1069.11,0l-2,80.35H1046.2l-2-80.35Z"/><g class="cls-2"><path class="cls-3" d="M1075.19,138.83C989,118,898.61,77,811.41,60.19c-89.74-17.34-183.33-16.33-273.2.39-63.1,11.73-124.36,31.07-187.63,41.86A710.84,710.84,0,0,1,0,73.35V166H1309V141.8C1235,164.92,1151.6,157.31,1075.19,138.83Z"/></g></g></g></svg>