<svg xmlns="http://www.w3.org/2000/svg" viewBox="0 0 693.13 466.11"><defs><style>.cls-1{fill:#c195aa;}.cls-2{fill:#b8437b;}.cls-3{fill:#ede9fc;}.cls-4{fill:#edcfc2;}.cls-5{fill:#291514;}.cls-6{fill:#520332;}.cls-7{fill:#fef3f2;}.cls-8{fill:#582c27;}.cls-9{fill:#b44d2c;}.cls-10{fill:#f9cfc7;}.cls-11{opacity:0.3;}.cls-12{fill:#fecdbb;}.cls-13{fill:#582814;}.cls-14{fill:#c46a6a;}.cls-15{fill:#311413;}.cls-16{fill:#fb9f8e;}.cls-17{fill:#311e26;}.cls-18{fill:#f9edee;}.cls-19{fill:#b43240;}.cls-20{fill:#582a3e;}.cls-21{fill:#fdf9fb;}.cls-22{fill:#2f2031;}.cls-23{fill:#fff;}.cls-24{fill:#f9f5f8;}.cls-25{fill:#544c40;}.cls-26{fill:#cc705f;}.cls-27{fill:#af2baa;}.cls-28{fill:#584a3b;}.cls-29{opacity:0.6;}.cls-30{fill:#721a3a;}.cls-31{fill:#591136;}.cls-32{fill:#f3dbdd;}.cls-33{fill:#cc4843;}</style></defs><g id="Layer_2" data-name="Layer 2"><g id="Background_Complete" data-name="Background Complete"><path class="cls-1" d="M53.76,375.41a25.08,25.08,0,0,1,6.14-16.12C61.76,367.38,53.76,375.41,53.76,375.41Z"/><path class="cls-1" d="M62.67,370.85a21.89,21.89,0,0,1,16.42-.48C72.82,375.39,62.67,370.85,62.67,370.85Z"/><path class="cls-1" d="M63.69,365.61a20.09,20.09,0,0,1,2.23-13.5C68.61,358,63.69,365.61,63.69,365.61Z"/><path class="cls-1" d="M29.24,346.7c13,3.67,20,15.64,20,15.64C38.12,362.35,29.24,346.7,29.24,346.7Z"/><path class="cls-1" d="M50,352.35c-.68-14.84,13-31.64,13-31.64C61,339.14,50,352.35,50,352.35"/><path class="cls-1" d="M50,310.08A41.5,41.5,0,0,1,45,331.34C43.1,321.79,50,310.08,50,310.08Z"/><path class="cls-1" d="M44.68,340.23c-10.26-1.16-15.84-12-15.84-12C41.25,332,44.68,340.23,44.68,340.23Z"/><path class="cls-1" d="M22.55,385.6a22,22,0,0,1,16.13-3.28C33.26,388.35,22.55,385.6,22.55,385.6Z"/><path class="cls-1" d="M49.14,390.47a15.61,15.61,0,0,1-6.9,8.21C42.68,393.68,49.14,390.47,49.14,390.47Z"/><path class="cls-1" d="M47.82,388.87a17.35,17.35,0,0,1-12.27,2.32C39.5,386.84,47.82,388.87,47.82,388.87Z"/><path class="cls-2" d="M53.07,408.85a.57.57,0,0,1,0-.22l0-.65v-2.49c0-1.07,0-2.4,0-3.93s0-3.28-.11-5.21c-.09-3.85-.34-8.44-.72-13.53s-1-10.65-1.8-16.48c-1.62-11.65-3.84-22.07-5.62-29.55-.9-3.74-1.65-6.77-2.21-8.84-.25-1-.46-1.82-.61-2.4l-.15-.63a.61.61,0,0,1,0-.22,1.08,1.08,0,0,1,.08.2c0,.17.11.37.19.62.17.58.4,1.37.7,2.37.6,2.07,1.41,5.08,2.35,8.81a288.26,288.26,0,0,1,5.75,29.57c.81,5.84,1.38,11.42,1.78,16.52s.57,9.69.62,13.56c.05,1.93,0,3.68,0,5.21s0,2.86,0,3.94-.06,1.87-.08,2.48l0,.65C53.08,408.78,53.07,408.85,53.07,408.85Z"/><path class="cls-2" d="M34.23,377.44c.08-.11,4.22,2.76,9.27,6.42s9.07,6.71,9,6.82-4.22-2.77-9.26-6.42S34.16,377.55,34.23,377.44Z"/><path class="cls-2" d="M52.5,379a3.81,3.81,0,0,1,.64-.74L55,376.4l6.17-6.11,6.17-6.12,1.87-1.85c.44-.44.7-.67.72-.64a3.94,3.94,0,0,1-.6.77c-.4.48-1,1.15-1.77,2-1.51,1.63-3.66,3.84-6.08,6.22s-4.63,4.51-6.26,6c-.81.75-1.48,1.35-1.94,1.76A4.12,4.12,0,0,1,52.5,379Z"/><path class="cls-1" d="M21.06,370.41s10.6-.22,15.09,8.61A18.72,18.72,0,0,1,21.06,370.41Z"/><path class="cls-1" d="M35.54,365.91s8.64,6.51,7.26,16.42A20.52,20.52,0,0,1,35.54,365.91Z"/><path class="cls-1" d="M81,349.86s-3.41,12.55-14.23,14.81A23.07,23.07,0,0,1,81,349.86Z"/><path class="cls-1" d="M30.83,303.2s13.53,9.33,12,24.51C42.86,327.71,31.22,319.91,30.83,303.2Z"/><path class="cls-2" d="M75.86,386.2a5.29,5.29,0,0,1-.88.74c-.58.45-1.42,1.12-2.43,2a61.76,61.76,0,0,0-13.38,15.77c-.69,1.15-1.23,2.09-1.59,2.76a5.21,5.21,0,0,1-.6,1,5.29,5.29,0,0,1,.45-1.09c.31-.7.8-1.67,1.46-2.85a54.92,54.92,0,0,1,6-8.63,53.52,53.52,0,0,1,7.47-7.23c1.05-.82,1.91-1.44,2.53-1.84A4.64,4.64,0,0,1,75.86,386.2Z"/><path class="cls-1" d="M64.09,395.52a25.48,25.48,0,0,1,3.1-17.06C68.65,389.1,64.09,395.52,64.09,395.52Z"/><path class="cls-1" d="M73.19,390.27A15.94,15.94,0,0,1,85,388.34C78.47,392,73.19,390.27,73.19,390.27Z"/><polygon class="cls-1" points="33.34 410.02 38.42 445.29 67.9 445.29 74.75 410.53 33.34 410.02"/><path class="cls-3" d="M70.63,432.62c0,.1-7.56.18-16.88.18s-16.88-.08-16.88-.18,7.56-.18,16.88-.18S70.63,432.52,70.63,432.62Z"/><path class="cls-3" d="M70.74,430.89c0,.1-7.61.18-17,.18s-17-.08-17-.18,7.61-.19,17-.19S70.74,430.79,70.74,430.89Z"/><path class="cls-3" d="M70.68,428.93c0,.1-7.61.18-17,.18s-17-.08-17-.18,7.61-.19,17-.19S70.68,428.83,70.68,428.93Z"/><path class="cls-3" d="M41.8,443.27a29.75,29.75,0,0,1-.9-4.44,28,28,0,0,1-.56-4.5,31.34,31.34,0,0,1,.9,4.44A29.58,29.58,0,0,1,41.8,443.27Z"/><path class="cls-3" d="M43.81,442.9a104.59,104.59,0,0,1-.56-8.68,22,22,0,0,1,.54,4.32A23,23,0,0,1,43.81,442.9Z"/><path class="cls-3" d="M47.47,442.9a21.65,21.65,0,0,1-.77-4.44,23.21,23.21,0,0,1-.23-4.51,38.75,38.75,0,0,1,.57,4.46C47.31,440.88,47.56,442.88,47.47,442.9Z"/><path class="cls-3" d="M50,443.08a23.82,23.82,0,0,1-.41-4.51,23.57,23.57,0,0,1,.13-4.53,40,40,0,0,1,.22,4.52A41.27,41.27,0,0,1,50,443.08Z"/><path class="cls-3" d="M54.58,442.9a26,26,0,0,1-.32-4.28,28.13,28.13,0,0,1,0-4.3,25.37,25.37,0,0,1,.31,4.28A27.45,27.45,0,0,1,54.58,442.9Z"/><path class="cls-3" d="M57.89,443.09a30.84,30.84,0,0,1-.14-4.44,29.41,29.41,0,0,1,.21-4.43,56.28,56.28,0,0,1-.07,8.87Z"/><path class="cls-3" d="M61,442.62a29.5,29.5,0,0,1,.25-4.64,31.58,31.58,0,0,1,.59-4.59A29.39,29.39,0,0,1,61.6,438,32.13,32.13,0,0,1,61,442.62Z"/><path class="cls-3" d="M65,442.15a16.71,16.71,0,0,1,.49-3.94,16.06,16.06,0,0,1,1.1-3.8,37.25,37.25,0,0,1-.76,3.88A36.08,36.08,0,0,1,65,442.15Z"/><path class="cls-1" d="M30,403v6.6a2.53,2.53,0,0,0,2.45,2.6H75.12a2.53,2.53,0,0,0,2.45-2.6V403Z"/><polygon class="cls-2" points="33.66 412.23 34.01 414.33 73.42 417.3 74.41 412.23 33.66 412.23"/><polygon class="cls-4" points="137.7 7.29 135.61 67.97 149.72 74.75 152.84 83.3 178.13 72.42 174.67 63.79 179.5 47.87 137.7 7.29"/><path class="cls-2" d="M137.7,7.29l41.92,40.44.08.08,0,.11c-1.53,5.06-3.15,10.4-4.82,15.93v-.13c1.1,2.73,2.28,5.65,3.47,8.62l.07.19-.17.07L165.3,78.16l-12.38,5.33-.19.08-.07-.2q-1.57-4.35-3.12-8.55l.1.11-14.1-6.79-.11-.06V68c1.33-35.52,2.21-59,2.27-60.67,0,1.68-.79,25.15-1.9,60.68l-.11-.18,14.11,6.78.07,0,0,.08q1.54,4.2,3.13,8.55l-.26-.12,12.38-5.33,12.9-5.55-.1.26c-1.19-3-2.36-5.89-3.46-8.62l0-.07,0-.07,4.84-15.92,0,.19Z"/><path class="cls-2" d="M162.65,44.86a8.84,8.84,0,0,1-4.5,11.41,8.31,8.31,0,0,1-11-4.75,8.82,8.82,0,0,1,4.49-11.41A8.33,8.33,0,0,1,162.65,44.86Z"/><path class="cls-2" d="M137.7,7.29c.1,0,4,9.08,8.78,20.37s8.53,20.49,8.43,20.53-4-9.07-8.79-20.37S137.6,7.34,137.7,7.29Z"/><path class="cls-2" d="M233.7,245.63h0a13.26,13.26,0,0,1-17.48-7.5L156.73,92.21l24.68-10.62,59.43,145.77A14.09,14.09,0,0,1,233.7,245.63Z"/><polygon class="cls-2" points="183.78 80.57 154.76 93.06 150.53 82.53 179.55 70.04 183.78 80.57"/><polygon class="cls-4" points="165.02 304.76 149.94 362.55 168.43 376.49 209.99 387.19 226.47 321.94 165.02 304.76"/><path class="cls-1" d="M158,360l-8,2.58a25.48,25.48,0,0,0,6.49,8,34.32,34.32,0,0,0,12,5.94A24.69,24.69,0,0,1,158,360Z"/><path class="cls-2" d="M214.46,340.66c0,.11-10.51-2.72-23.41-6.32s-23.34-6.61-23.31-6.72,10.51,2.72,23.41,6.33S214.49,340.55,214.46,340.66Z"/><path class="cls-2" d="M212,349.51c0,.11-10.51-2.72-23.41-6.32s-23.34-6.61-23.31-6.72,10.5,2.73,23.41,6.33S212.06,349.41,212,349.51Z"/><path class="cls-2" d="M210.32,357.48c0,.11-10.51-2.72-23.41-6.32s-23.34-6.61-23.31-6.72,10.5,2.73,23.41,6.33S210.35,357.38,210.32,357.48Z"/><path class="cls-2" d="M208.37,365.07c0,.11-10.51-2.72-23.41-6.32s-23.34-6.61-23.31-6.72,10.51,2.73,23.41,6.33S208.4,365,208.37,365.07Z"/><polygon class="cls-4" points="646.26 251.78 634.76 295.86 648.86 306.49 680.56 314.66 693.13 264.89 646.26 251.78"/><path class="cls-1" d="M640.88,293.89l-6.12,2a19.58,19.58,0,0,0,5,6.11,26.13,26.13,0,0,0,9.15,4.52A18.82,18.82,0,0,1,640.88,293.89Z"/><path class="cls-2" d="M684,279.17c0,.08-8-2.08-17.86-4.83s-17.8-5-17.78-5.12,8,2.08,17.86,4.83S684,279.09,684,279.17Z"/><path class="cls-2" d="M682.11,285.92c0,.08-8-2.08-17.85-4.83s-17.8-5-17.78-5.12,8,2.08,17.85,4.83S682.13,285.84,682.11,285.92Z"/><path class="cls-2" d="M680.81,292c0,.08-8-2.08-17.85-4.83s-17.81-5-17.78-5.12,8,2.08,17.85,4.83S680.83,291.92,680.81,292Z"/><path class="cls-2" d="M679.32,297.79c0,.08-8-2.08-17.85-4.83s-17.8-5-17.78-5.12,8,2.08,17.85,4.83S679.34,297.71,679.32,297.79Z"/><path class="cls-2" d="M585.47,32.67l-15.2,4.11-.74,4.92a10.73,10.73,0,0,0,0,3.9A3.07,3.07,0,0,0,571.67,48a11.71,11.71,0,0,0,4.41-.33l.3,1.24L562.07,52.8l-.3-1.24a6.74,6.74,0,0,0,3.32-3.06,29.4,29.4,0,0,0,2-7.86L573.72.16l.6-.16,24.55,33.12c2.34,3.14,4.09,5,5.26,5.69a4.91,4.91,0,0,0,3.34.39l.3,1.24L587,46.07l-.3-1.24.86-.23a6.58,6.58,0,0,0,3.34-1.69,2,2,0,0,0,.33-1.74,4.47,4.47,0,0,0-.49-1.19c-.09-.19-.61-.94-1.56-2.26Zm-1.68-2.19-10.2-13.94L570.78,34Z"/><path class="cls-1" d="M672.53,206.94,629,205.59a9.23,9.23,0,0,1-8.66-9.71l1.12-40.2a9.15,9.15,0,0,1,9.18-9.16l43.54,1.35a9.23,9.23,0,0,1,8.66,9.71l-1.11,40.2A9.17,9.17,0,0,1,672.53,206.94Z"/><path class="cls-2" d="M620.48,190.74,641.21,176a4,4,0,0,1,5.43.21l10.21,5.55,14.58-15.07a4.13,4.13,0,0,1,6.2.56l4.76,6.32-.23,25.89a7.2,7.2,0,0,1-7.23,7.34L627,205.24a7.26,7.26,0,0,1-6.78-7.68Z"/><ellipse class="cls-2" cx="643.99" cy="162.71" rx="6.14" ry="6.49"/><path class="cls-3" d="M59.89,50.11l-24.82-.77a9.23,9.23,0,0,1-8.66-9.71L27,17.44A9.17,9.17,0,0,1,36.2,8.28L61,9.05a9.23,9.23,0,0,1,8.66,9.71L69.07,41A9.15,9.15,0,0,1,59.89,50.11Z"/><path class="cls-4" d="M26.43,38.93l14.4-10.22a2.78,2.78,0,0,1,3.78.15l7.1,3.86L61.84,22.24a2.88,2.88,0,0,1,4.31.39L69.46,27l-.13,14a8.84,8.84,0,0,1-8.89,9l-25.7-.86a8.91,8.91,0,0,1-8.34-9.44Z"/><path class="cls-4" d="M47,19.24A4.43,4.43,0,0,1,43,24a4.38,4.38,0,0,1-4.46-4.3,4.43,4.43,0,0,1,4.07-4.72A4.36,4.36,0,0,1,47,19.24Z"/><path class="cls-4" d="M405,388.33c5.4,14.48-1.36,30.86-15.09,36.58s-29.23-1.39-34.63-15.87,1.36-30.86,15.09-36.58S399.64,373.84,405,388.33Z"/><path class="cls-1" d="M399.13,390.79c4.11,11-1,23.52-11.5,27.88s-22.28-1.06-26.4-12.09,1-23.52,11.5-27.88S395,379.75,399.13,390.79Z"/><path class="cls-2" d="M398.89,390.17a12.92,12.92,0,0,1-1.4-2.2,22.39,22.39,0,0,0-4.47-5.23,21.06,21.06,0,0,0-3.87-2.6,19.39,19.39,0,0,0-5-1.75,18.68,18.68,0,0,0-5.75-.3,17.66,17.66,0,0,0-3,.55,21.15,21.15,0,0,0-3,1.07,19.89,19.89,0,0,0-5.23,3.48,19.66,19.66,0,0,0-2.07,2.22,20.43,20.43,0,0,0-1.68,2.41,22.12,22.12,0,0,0-2.2,5,22.89,22.89,0,0,0-.87,4.76,24.05,24.05,0,0,0,.52,7,12.27,12.27,0,0,1,.55,2.59,6.56,6.56,0,0,1-1.13-2.41,20.86,20.86,0,0,1-1-7.27,22.47,22.47,0,0,1,2.95-10.5A20.69,20.69,0,0,1,364,384.4a20,20,0,0,1,2.2-2.42,20.88,20.88,0,0,1,2.63-2.1,21.27,21.27,0,0,1,3-1.68,22,22,0,0,1,3.21-1.15,19.61,19.61,0,0,1,3.25-.57,18.8,18.8,0,0,1,3.18,0,18.51,18.51,0,0,1,3,.45,19.93,19.93,0,0,1,9.24,5,19.75,19.75,0,0,1,4.28,5.79A6.74,6.74,0,0,1,398.89,390.17Z"/><path class="cls-2" d="M386.77,409.74l1.35,3.47-2.93,1.27-1.31-3.38a14.1,14.1,0,0,1-8.25.69l.14-4.47a12.14,12.14,0,0,0,6.54-.27l-2-5.18c-3.58.58-7.66,1-9.38-3.42-1.27-3.28-.11-7.08,4.3-9.65l-1.34-3.44,2.93-1.27,1.31,3.38a13.5,13.5,0,0,1,6.68-.69l0,4.44a12.29,12.29,0,0,0-5.11.34l2.05,5.26c3.56-.6,7.58-1,9.28,3.36C392.29,403.4,391.15,407.15,386.77,409.74Zm-8.24-12.42-1.71-4.4c-1.41,1.05-1.67,2.21-1.28,3.24S377.07,397.45,378.53,397.32Zm7.94,5.28c-.43-1.09-1.5-1.31-2.94-1.22l1.66,4.27C386.52,404.67,386.85,403.59,386.47,402.6Z"/><path class="cls-4" d="M51.58,175c5.4,14.48-1.36,30.86-15.09,36.58S7.25,210.2,1.86,195.72,3.22,164.86,17,159.14,46.18,160.52,51.58,175Z"/><path class="cls-1" d="M45.66,177.47c4.12,11-1,23.52-11.5,27.88s-22.27-1.06-26.39-12.09,1-23.52,11.5-27.88S41.55,166.44,45.66,177.47Z"/><path class="cls-2" d="M45.43,176.85c-.12.05-.53-.8-1.4-2.2a22.23,22.23,0,0,0-4.48-5.23,20.63,20.63,0,0,0-3.86-2.6,19.77,19.77,0,0,0-5-1.75,17.13,17.13,0,0,0-2.81-.37,18.13,18.13,0,0,0-2.94.07,18.69,18.69,0,0,0-3,.55,20.7,20.7,0,0,0-3,1.07,19.89,19.89,0,0,0-5.23,3.48,18.78,18.78,0,0,0-2.07,2.22A20.43,20.43,0,0,0,10,174.5a22.12,22.12,0,0,0-2.2,5A22.89,22.89,0,0,0,7,184.27a24.05,24.05,0,0,0,.52,7A12.27,12.27,0,0,1,8,193.88a6.56,6.56,0,0,1-1.13-2.41,20.63,20.63,0,0,1-1-7.27,22.47,22.47,0,0,1,3-10.5,20.69,20.69,0,0,1,1.76-2.62,20,20,0,0,1,2.2-2.42,21.51,21.51,0,0,1,2.62-2.1,22,22,0,0,1,3-1.68,21.61,21.61,0,0,1,3.21-1.15,20.5,20.5,0,0,1,3.25-.57,18.69,18.69,0,0,1,3.17,0,19.3,19.3,0,0,1,3,.45,19.9,19.9,0,0,1,9.25,4.95,19.75,19.75,0,0,1,4.28,5.79A6.74,6.74,0,0,1,45.43,176.85Z"/><path class="cls-2" d="M33.31,196.42l1.35,3.47-2.93,1.27-1.31-3.37a14.3,14.3,0,0,1-8.26.69l.15-4.48a12.1,12.1,0,0,0,6.53-.27l-2-5.18c-3.57.58-7.65,1-9.37-3.42-1.27-3.28-.11-7.08,4.3-9.65L20.42,172l2.93-1.27,1.31,3.38a13.5,13.5,0,0,1,6.68-.69l0,4.44a12.29,12.29,0,0,0-5.11.34l2.05,5.26c3.56-.6,7.58-1,9.28,3.36C38.83,190.08,37.68,193.83,33.31,196.42ZM25.07,184l-1.71-4.4c-1.41,1.05-1.68,2.21-1.28,3.24S23.61,184.13,25.07,184ZM33,189.28c-.43-1.09-1.5-1.31-2.94-1.22l1.66,4.27C33.06,191.35,33.39,190.27,33,189.28Z"/><path class="cls-5" d="M103.16,78.27a2,2,0,0,0,0,.26l0,0Z"/></g><g id="Background_Simple" data-name="Background Simple"><path class="cls-6" d="M606.21,19.2l-2,.27c-16.49,2.24-30.59,13.14-36.2,28.65a43.07,43.07,0,0,0-1.72,6.12,46.86,46.86,0,0,0,13.29,42.2c6.55,6.31,15.2,11,19,19.27,5,10.7-.11,23-5.11,33.61s-10,22.92-5,33.61c3.13,6.69,9.73,11.25,16.69,13.85,18.42,6.88,40,1.33,54.92-11.14S683.91,154.69,688,135.7c5.71-26.61,2.29-55.76-12.55-78.85S633.65,17.84,606.21,19.2Z"/><path class="cls-6" d="M60,187l1.81.8c15.23,6.71,32.94,4.78,45.83-5.51a43.47,43.47,0,0,0,4.67-4.33A46.83,46.83,0,0,0,123,135c-2.29-8.8-7.19-17.35-6.14-26.35,1.38-11.72,12.12-19.58,21.92-26s20.54-14.31,21.86-26c.83-7.34-2.42-14.69-7-20.54-12.12-15.48-33.39-22-52.65-19.19S64.5,30.83,51.1,44.9C32.33,64.6,20,91.25,20.6,118.68S35.85,173.78,60,187Z"/><circle class="cls-6" cx="229.2" cy="330.85" r="58.73" transform="translate(-146.34 475.62) rotate(-76.37)"/></g><g id="Book"><path class="cls-7" d="M303.76,37.11H253a4.44,4.44,0,0,1-4.29-4.76l1-22.73a4.42,4.42,0,0,1,4.29-4.33h50.73a4.44,4.44,0,0,1,4.29,4.77l-1,22.72A4.42,4.42,0,0,1,303.76,37.11Z"/><path class="cls-8" d="M303.76,37.11a5.08,5.08,0,0,0,1.67-.42,4.24,4.24,0,0,0,1.62-1.35,4.67,4.67,0,0,0,.91-2.77c.19-4.61.46-11.24.8-19.41,0-2,.62-4.35-.8-6a4,4,0,0,0-2.63-1.55c-1-.08-2.2,0-3.33,0l-14.56,0-33.37,0a4,4,0,0,0-3.46,2.06A4.46,4.46,0,0,0,250,9.69c0,.76-.07,1.53-.11,2.29-.14,3-.27,6-.41,9s-.27,5.84-.4,8.68c0,.71-.06,1.41-.1,2.12a5.7,5.7,0,0,0,.13,2,4.22,4.22,0,0,0,2.38,2.78,4.17,4.17,0,0,0,1.78.32H266l12.69,0L297,37l5,0,1.29,0,.45,0a2.56,2.56,0,0,1-.45,0l-1.29,0-5,.06-18.37.08-12.69,0H253.3a4.57,4.57,0,0,1-4.63-3.46,6.33,6.33,0,0,1-.15-2.16l.09-2.11c.13-2.84.26-5.74.39-8.68s.27-5.95.4-9c0-.76.07-1.52.11-2.29a5,5,0,0,1,.66-2.32A4.53,4.53,0,0,1,254.07,5l33.37,0,14.56,0c1.15,0,2.24-.05,3.39,0a4.41,4.41,0,0,1,2.88,1.72,4.93,4.93,0,0,1,1,3.19q-.07,1.61-.15,3.15c-.4,8.17-.73,14.79-1,19.4a4.84,4.84,0,0,1-1,2.87,4.35,4.35,0,0,1-1.7,1.34,4.14,4.14,0,0,1-1.27.32Z"/><polygon class="cls-9" points="461.56 37.29 463.73 22.93 472.98 17.25 480.58 25.86 478.29 40.59 461.56 37.29"/><polygon class="cls-10" points="504.33 52.46 493.11 313.02 312.06 307.58 301.28 287.68 320.75 45.52 489.25 33.73 504.33 52.46"/><g class="cls-11"><polygon points="493.11 313.02 478.02 294.29 489.25 33.73 504.33 52.46 493.11 313.02"/></g><polygon class="cls-12" points="489.25 33.73 478.02 294.29 301.28 287.68 314.65 31.1 489.25 33.73"/><path class="cls-13" d="M489.25,33.73l-174.6-2.41.21-.21c-3.72,71.7-8.33,160.52-13.32,256.59l-.25-.29,2.92.11L478,294l-.24.24C484.56,140.4,489.15,36,489.25,33.73c-.1,2.22-4.5,106.68-11,260.57v.25H478l-173.82-6.47-2.92-.11H301v-.28c5-96.07,9.67-184.88,13.42-256.59v-.21h.21Z"/><path class="cls-14" d="M335,93.92l61.72,1.92a2.41,2.41,0,0,0,2.42-2.41L399.2,91a2.42,2.42,0,0,0-2.28-2.55L335.2,86.52a2.39,2.39,0,0,0-2.41,2.4l-.07,2.45A2.42,2.42,0,0,0,335,93.92Z"/><path class="cls-14" d="M334.4,108.25l61.72,1.91a2.4,2.4,0,0,0,2.41-2.41l.07-2.44a2.43,2.43,0,0,0-2.27-2.56l-61.73-1.91a2.41,2.41,0,0,0-2.41,2.41l-.07,2.44A2.43,2.43,0,0,0,334.4,108.25Z"/><path class="cls-14" d="M333.8,122.57l61.72,1.91a2.4,2.4,0,0,0,2.42-2.4l.07-2.45a2.42,2.42,0,0,0-2.28-2.55L334,115.16a2.4,2.4,0,0,0-2.41,2.41l-.07,2.45A2.42,2.42,0,0,0,333.8,122.57Z"/><path class="cls-14" d="M333.21,136.89l61.72,1.92a2.4,2.4,0,0,0,2.41-2.41l.07-2.45a2.42,2.42,0,0,0-2.27-2.55l-61.73-1.91a2.4,2.4,0,0,0-2.41,2.4l-.07,2.45A2.42,2.42,0,0,0,333.21,136.89Z"/><path class="cls-14" d="M332.61,151.22l61.72,1.91a2.41,2.41,0,0,0,2.42-2.41l.07-2.44a2.43,2.43,0,0,0-2.28-2.56l-61.72-1.91a2.41,2.41,0,0,0-2.42,2.41l-.06,2.44A2.43,2.43,0,0,0,332.61,151.22Z"/><path class="cls-14" d="M332,165.54l61.72,1.91a2.39,2.39,0,0,0,2.41-2.4l.07-2.45a2.42,2.42,0,0,0-2.27-2.55l-61.73-1.92a2.41,2.41,0,0,0-2.41,2.41l-.07,2.45A2.42,2.42,0,0,0,332,165.54Z"/><path class="cls-14" d="M331.42,179.86l61.72,1.92a2.41,2.41,0,0,0,2.42-2.41l.07-2.45a2.42,2.42,0,0,0-2.28-2.55l-61.72-1.91a2.4,2.4,0,0,0-2.42,2.4l-.06,2.45A2.42,2.42,0,0,0,331.42,179.86Z"/><path class="cls-14" d="M405.22,167.68l61.72,1.92a2.41,2.41,0,0,0,2.42-2.41l.06-2.45a2.42,2.42,0,0,0-2.27-2.55l-61.72-1.91a2.4,2.4,0,0,0-2.42,2.4l-.07,2.45A2.43,2.43,0,0,0,405.22,167.68Z"/><path class="cls-14" d="M404.63,182l61.72,1.91a2.41,2.41,0,0,0,2.41-2.41l.07-2.44a2.43,2.43,0,0,0-2.28-2.56l-61.72-1.91a2.41,2.41,0,0,0-2.41,2.41l-.07,2.44A2.43,2.43,0,0,0,404.63,182Z"/><path class="cls-14" d="M403.91,197.11,465.63,199a2.4,2.4,0,0,0,2.41-2.4l.07-2.45a2.42,2.42,0,0,0-2.28-2.55l-61.72-1.92a2.41,2.41,0,0,0-2.41,2.41l-.07,2.45A2.42,2.42,0,0,0,403.91,197.11Z"/><path class="cls-14" d="M403.19,212.21l61.72,1.92a2.41,2.41,0,0,0,2.42-2.41l.06-2.45a2.42,2.42,0,0,0-2.27-2.55l-61.72-1.91a2.4,2.4,0,0,0-2.42,2.4l-.07,2.45A2.43,2.43,0,0,0,403.19,212.21Z"/><path class="cls-14" d="M402.47,227.32l61.72,1.91a2.41,2.41,0,0,0,2.42-2.41l.07-2.44a2.44,2.44,0,0,0-2.28-2.56l-61.72-1.91a2.41,2.41,0,0,0-2.42,2.41l-.06,2.44A2.43,2.43,0,0,0,402.47,227.32Z"/><path class="cls-14" d="M401.75,242.42l61.72,1.91a2.4,2.4,0,0,0,2.42-2.4l.07-2.45a2.42,2.42,0,0,0-2.28-2.55L402,235a2.41,2.41,0,0,0-2.42,2.41l-.06,2.45A2.42,2.42,0,0,0,401.75,242.42Z"/><path class="cls-14" d="M401,257.53l61.72,1.91a2.41,2.41,0,0,0,2.41-2.41l.07-2.45A2.42,2.42,0,0,0,463,252l-61.72-1.91a2.4,2.4,0,0,0-2.41,2.41l-.07,2.44A2.43,2.43,0,0,0,401,257.53Z"/><path class="cls-14" d="M325.36,268.78,461.58,273A2.41,2.41,0,0,0,464,270.6l.07-2.45a2.43,2.43,0,0,0-2.28-2.55l-136.22-4.22a2.4,2.4,0,0,0-2.41,2.41l-.07,2.44A2.42,2.42,0,0,0,325.36,268.78Z"/><path class="cls-14" d="M336.06,75.27l41.62,1.29a2.4,2.4,0,0,0,2.42-2.4l.07-2.45a2.43,2.43,0,0,0-2.28-2.55l-41.62-1.29a2.4,2.4,0,0,0-2.42,2.4l-.07,2.45A2.43,2.43,0,0,0,336.06,75.27Z"/><path class="cls-13" d="M311.05,293.56l.86.06,2.53.11,9.78.39,36.3,1.35,122.6,4.38h.27v-.28c.46-10.3,1-21.1,1.44-32.1,2.62-59.09,5-112.59,6.7-151.32.83-19.35,1.5-35,2-45.86.22-5.4.39-9.6.51-12.46.05-1.42.09-2.5.12-3.25s0-1.1,0-1.1,0,.37-.08,1.1-.1,1.82-.17,3.24c-.14,2.86-.35,7.06-.61,12.46-.51,10.84-1.24,26.5-2.14,45.85-1.76,38.73-4.18,92.22-6.86,151.31-.49,11-1,21.8-1.43,32.11l.27-.27L360.53,295.1l-36.3-1.18-9.79-.29-2.53-.07Z"/><path class="cls-13" d="M325.41,301.36l.81.06,2.39.11,9.24.4,34.34,1.39,116.51,4.52H489v-.28c.62-12.43,1.27-25.36,1.93-38.57,2.87-58.31,5.47-111.09,7.36-149.31.91-19.1,1.65-34.55,2.16-45.25.25-5.33.44-9.48.57-12.31.05-1.39.1-2.46.13-3.2s0-1.09,0-1.09,0,.37-.09,1.09-.1,1.8-.18,3.2c-.15,2.82-.38,7-.66,12.3-.56,10.69-1.36,26.14-2.34,45.24-1.93,38.21-4.59,91-7.52,149.3-.66,13.21-1.3,26.14-1.92,38.57l.28-.26L372.2,303l-34.35-1.22-9.24-.3-2.39-.07Z"/><polygon class="cls-13" points="383.93 30.4 386.6 27.64 418.43 27.81 419.97 30.88 383.93 30.4"/><polygon class="cls-13" points="419.78 46.92 419.97 30.88 383.93 30.4 383.74 46.44 419.78 46.92"/><path class="cls-13" d="M421,47.48v-.61a1.28,1.28,0,0,0-1.26-1.31l-36-.48a1.29,1.29,0,0,0-1.29,1.28V47a1.29,1.29,0,0,0,1.26,1.32l36,.48A1.28,1.28,0,0,0,421,47.48Z"/><path class="cls-15" d="M409.75,42.88h0l-15.85-.21a1.41,1.41,0,0,1-1.14-.65,1.56,1.56,0,0,1-.15-1.35l4.67-13.27a8.89,8.89,0,0,1-3.34-6.89A8.58,8.58,0,0,1,402,11.62a8,8,0,0,1,6,2.53,9.07,9.07,0,0,1-1.1,13.42l4.17,13.37a1.56,1.56,0,0,1-.2,1.33A1.4,1.4,0,0,1,409.75,42.88Zm-7.56-30.2H402a7.63,7.63,0,0,0-7.08,7.81,7.78,7.78,0,0,0,3.22,6.27l.32.23L393.52,41a.45.45,0,0,0,.05.39.38.38,0,0,0,.32.18l15.85.21a.39.39,0,0,0,.33-.17.43.43,0,0,0,.06-.38l-4.41-14.15.33-.22a8,8,0,0,0,1.26-12A7,7,0,0,0,402.19,12.68Z"/><path class="cls-15" d="M419.53,45.56a1.77,1.77,0,0,0-.36,0l-1,0-3.81-.09-12.57-.21-12.58-.15-3.81,0-1,0a1.53,1.53,0,0,0-.37,0,1.38,1.38,0,0,0,.37,0l1,.05,3.81.11c3.22.08,7.66.16,12.57.24s9.36.12,12.58.12c1.61,0,2.91,0,3.81,0l1,0Z"/><path class="cls-15" d="M420,30.55a2.63,2.63,0,0,0-.36,0l-1,0-3.81-.08-12.58-.22-12.57-.15h-4.85l-.36,0a2,2,0,0,0,.36,0l1,0,3.81.12c3.21.08,7.66.16,12.57.24s9.36.11,12.57.12c1.61,0,2.92,0,3.82,0,.45,0,.79,0,1,0A1.17,1.17,0,0,0,420,30.55Z"/><path class="cls-16" d="M380.18,251.19l-43.54-1.35a9.22,9.22,0,0,1-8.65-9.71l1.11-40.2a9.16,9.16,0,0,1,9.18-9.16l43.54,1.35a9.23,9.23,0,0,1,8.66,9.71L389.37,242A9.17,9.17,0,0,1,380.18,251.19Z"/><path class="cls-10" d="M328.1,235.8a1.64,1.64,0,0,1,.66-1.26l20.1-14.25a4,4,0,0,1,5.31.1,1.31,1.31,0,0,0,.27.19l9.1,4.95a1.45,1.45,0,0,0,1.74-.28L379.08,211a4.13,4.13,0,0,1,6.2.56l4.43,5.88a1.61,1.61,0,0,1,.32,1l-.21,23.74a8.7,8.7,0,0,1-8.74,8.88l-44.93-1.5a8.77,8.77,0,0,1-8.2-9.29Z"/><ellipse class="cls-10" cx="351.64" cy="206.96" rx="6.14" ry="6.49"/><path class="cls-16" d="M459.51,151.18,416,149.83a9.22,9.22,0,0,1-8.66-9.71l1.11-40.2a9.17,9.17,0,0,1,9.18-9.16l43.54,1.35a9.23,9.23,0,0,1,8.66,9.71L468.69,142A9.17,9.17,0,0,1,459.51,151.18Z"/><path class="cls-10" d="M407.45,135l20.73-14.71a4,4,0,0,1,5.43.21L443.83,126,458.4,111a4.13,4.13,0,0,1,6.2.56l4.76,6.32-.2,22.73c-.06,5.89-4.68,10.59-10.25,10.4l-42-1.4c-5.51-.19-9.82-5.07-9.62-10.89Z"/><ellipse class="cls-10" cx="430.97" cy="106.95" rx="6.14" ry="6.49"/><path class="cls-8" d="M337.42,125.22a2.47,2.47,0,0,1-.81-.24,4.49,4.49,0,0,1-1.83-1.63,5.78,5.78,0,0,1-.89-3.88,7.88,7.88,0,0,1,2.43-4.64,12.49,12.49,0,0,1,5.47-2.84,28.16,28.16,0,0,1,6.93-.94,29.28,29.28,0,0,1,15.39,4.12,11.43,11.43,0,0,1,3.26,2.9,7.39,7.39,0,0,1,1.47,4.11,5.67,5.67,0,0,1-1.47,3.95,8.58,8.58,0,0,1-3.25,2.16,20.86,20.86,0,0,1-6.9,1.18,36.83,36.83,0,0,1-6.08-.28A36.21,36.21,0,0,1,342.6,127c-1-.38-1.71-.71-2.21-1a6,6,0,0,1-.74-.39,4,4,0,0,1,.78.29c.51.21,1.26.51,2.24.86a38.91,38.91,0,0,0,8.51,2,37.74,37.74,0,0,0,6,.2,20.43,20.43,0,0,0,6.75-1.2,8,8,0,0,0,3.06-2,5.14,5.14,0,0,0,1.32-3.57,6.9,6.9,0,0,0-1.37-3.8,11.1,11.1,0,0,0-3.11-2.75,29,29,0,0,0-22-3.22,12.39,12.39,0,0,0-5.33,2.69,7.55,7.55,0,0,0-2.38,4.39,5.59,5.59,0,0,0,.77,3.72,4.68,4.68,0,0,0,1.71,1.65C337.14,125.13,337.43,125.19,337.42,125.22Z"/><path class="cls-8" d="M363.27,272.93a2.41,2.41,0,0,1-.81-.24,4.49,4.49,0,0,1-1.83-1.63,5.71,5.71,0,0,1-.89-3.88,7.84,7.84,0,0,1,2.42-4.63,12.61,12.61,0,0,1,5.47-2.85,28.16,28.16,0,0,1,6.93-.94,29.24,29.24,0,0,1,15.4,4.13,11.39,11.39,0,0,1,3.26,2.89,7.45,7.45,0,0,1,1.46,4.11,5.65,5.65,0,0,1-1.46,3.95A8.46,8.46,0,0,1,390,276a20.87,20.87,0,0,1-6.91,1.18,36.79,36.79,0,0,1-14.61-2.45c-1-.38-1.72-.72-2.21-1a5.7,5.7,0,0,1-.75-.4,4.13,4.13,0,0,1,.79.29c.5.22,1.26.52,2.24.86a38.2,38.2,0,0,0,8.51,2,38.8,38.8,0,0,0,6,.21,21,21,0,0,0,6.75-1.2,8.1,8.1,0,0,0,3.06-2,5.06,5.06,0,0,0,1.31-3.57,6.92,6.92,0,0,0-1.36-3.8,11,11,0,0,0-3.12-2.75,29,29,0,0,0-15.12-4.09,28.42,28.42,0,0,0-6.83.88,12.17,12.17,0,0,0-5.33,2.69,7.5,7.5,0,0,0-2.38,4.38,5.53,5.53,0,0,0,.77,3.72,4.53,4.53,0,0,0,1.71,1.65C363,272.85,363.27,272.9,363.27,272.93Z"/><path class="cls-8" d="M333.27,76.85a2.76,2.76,0,0,1-.81-.24A4.53,4.53,0,0,1,330.63,75a5.77,5.77,0,0,1-.9-3.88,7.91,7.91,0,0,1,2.43-4.63,12.49,12.49,0,0,1,5.47-2.84,28.63,28.63,0,0,1,6.93-.95A29.18,29.18,0,0,1,360,66.8a11.43,11.43,0,0,1,3.27,2.89,7.46,7.46,0,0,1,1.46,4.12,5.66,5.66,0,0,1-1.46,4A8.44,8.44,0,0,1,360,79.91a20.89,20.89,0,0,1-6.91,1.19,37.77,37.77,0,0,1-6.07-.28,36.07,36.07,0,0,1-8.54-2.18c-1-.38-1.72-.71-2.21-1a5.7,5.7,0,0,1-.75-.4,4.85,4.85,0,0,1,.79.3c.5.21,1.25.51,2.23.86a39.11,39.11,0,0,0,8.52,2,37.6,37.6,0,0,0,6,.21,20.74,20.74,0,0,0,6.75-1.2,8.19,8.19,0,0,0,3.06-2,5.14,5.14,0,0,0,1.31-3.58A7,7,0,0,0,362.81,70a11,11,0,0,0-3.12-2.76,29.1,29.1,0,0,0-15.12-4.09,28.35,28.35,0,0,0-6.83.88,12.17,12.17,0,0,0-5.33,2.69A7.6,7.6,0,0,0,330,71.13a5.52,5.52,0,0,0,.78,3.72,4.63,4.63,0,0,0,1.7,1.66C333,76.76,333.27,76.82,333.27,76.85Z"/><polygon class="cls-9" points="486.71 225.21 500.46 225.57 507.02 234.51 499.96 243.62 485.85 243.18 486.71 225.21"/><polygon class="cls-17" points="488.01 199.71 501.76 200.07 508.32 209.01 501.26 218.12 487.15 217.68 488.01 199.71"/><rect class="cls-18" x="256.65" y="16.35" width="44.52" height="1.32" rx="0.53"/><rect class="cls-18" x="256.65" y="20.54" width="44.52" height="1.32" rx="0.53"/><rect class="cls-18" x="256.65" y="24.73" width="44.52" height="1.32" rx="0.53"/><path class="cls-8" d="M309.2,20.26c.11-.09,7,9.38,15.45,21.16s15.16,21.41,15,21.5-7-9.38-15.45-21.17S309.08,20.35,309.2,20.26Z"/><ellipse class="cls-8" cx="308.94" cy="19.41" rx="1.69" ry="1.79"/><path class="cls-7" d="M356.05,382.33H305.33a4.44,4.44,0,0,1-4.29-4.76l1-22.72a4.41,4.41,0,0,1,4.29-4.33h50.72a4.45,4.45,0,0,1,4.3,4.76l-1,22.72A4.41,4.41,0,0,1,356.05,382.33Z"/><path class="cls-8" d="M356.05,382.33a5.1,5.1,0,0,0,1.68-.42,4.37,4.37,0,0,0,1.62-1.34,4.71,4.71,0,0,0,.91-2.78c.18-4.61.46-11.23.79-19.41,0-2,.63-4.35-.79-6.05a4,4,0,0,0-2.63-1.55c-1-.08-2.21,0-3.33,0l-14.57,0-33.37,0a4,4,0,0,0-3.45,2.06,4.47,4.47,0,0,0-.59,2.06c0,.77-.07,1.53-.1,2.29q-.21,4.57-.41,9c-.14,2.95-.27,5.85-.4,8.68,0,.71-.07,1.42-.1,2.12a5.46,5.46,0,0,0,.13,2,4.19,4.19,0,0,0,2.38,2.78,4.14,4.14,0,0,0,1.78.32h12.65l12.69,0,18.38.08,5,.06,1.3,0,.44,0-.44,0-1.3,0-5,.05-18.38.09-12.69,0H305.6a4.62,4.62,0,0,1-2-.34,4.72,4.72,0,0,1-2.67-3.11,5.93,5.93,0,0,1-.15-2.17l.09-2.11q.19-4.26.39-8.68t.4-9c0-.77.07-1.53.1-2.3a5.18,5.18,0,0,1,.66-2.31,4.56,4.56,0,0,1,3.9-2.33l33.37,0,14.57,0c1.15,0,2.23,0,3.38,0a4.45,4.45,0,0,1,2.89,1.72,5,5,0,0,1,1,3.2c-.05,1.07-.1,2.12-.15,3.14-.41,8.17-.73,14.8-1,19.4a4.82,4.82,0,0,1-1,2.87,4.35,4.35,0,0,1-1.7,1.34,3.93,3.93,0,0,1-1.27.32Z"/><rect class="cls-18" x="308.94" y="361.57" width="44.52" height="1.32" rx="0.53"/><rect class="cls-18" x="308.94" y="365.76" width="44.52" height="1.32" rx="0.53"/><rect class="cls-18" x="308.94" y="369.96" width="44.52" height="1.32" rx="0.53"/><path class="cls-8" d="M375.25,276.06c.13.07-8,16.79-18.11,37.35s-18.45,37.18-18.58,37.11,8-16.8,18.12-37.36S375.13,276,375.25,276.06Z"/><path class="cls-8" d="M340.26,350.52a1.7,1.7,0,1,1-1.7-1.79A1.75,1.75,0,0,1,340.26,350.52Z"/></g><g id="Books"><path class="cls-19" d="M506.81,362.1h146.9a2.58,2.58,0,0,1,2.58,2.58v1.26a2.58,2.58,0,0,1-2.58,2.58H506.81a0,0,0,0,1,0,0V362.1A0,0,0,0,1,506.81,362.1Z"/><path class="cls-20" d="M504.82,365.81c0,.13-12.33.23-27.54.23s-27.54-.1-27.54-.23,12.33-.23,27.54-.23S504.82,365.68,504.82,365.81Z"/><path class="cls-19" d="M456.43,329.82H525a0,0,0,0,1,0,0v38.7a0,0,0,0,1,0,0H456.43A15.56,15.56,0,0,1,440.87,353v-7.57A15.56,15.56,0,0,1,456.43,329.82Z"/><path class="cls-19" d="M508,329.82H653.71a2.58,2.58,0,0,1,2.58,2.58v1.26a2.58,2.58,0,0,1-2.58,2.58H508a1.18,1.18,0,0,1-1.18-1.18V331A1.18,1.18,0,0,1,508,329.82Z"/><path class="cls-21" d="M651.83,362.1H523.49c-6.75,0-12.22-5.79-12.22-12.93h0c0-7.14,5.47-12.92,12.22-12.92H651.83A33.67,33.67,0,0,0,651.83,362.1Z"/><g class="cls-11"><path d="M511.27,368.52H454.73c-7.65,0-13.86-6.57-13.86-14.66v-9.49c0-8,6.16-14.55,13.75-14.55h58C499.41,338.31,500.4,358.64,511.27,368.52Z"/></g><path class="cls-20" d="M636.24,350.37c0,.13-26.34.23-58.83.23s-58.84-.1-58.84-.23,26.34-.23,58.84-.23S636.24,350.24,636.24,350.37Z"/><path class="cls-20" d="M648.35,356.12c0,.12-26.35.23-58.83.23s-58.84-.11-58.84-.23,26.34-.24,58.84-.24S648.35,356,648.35,356.12Z"/><path class="cls-20" d="M644.78,342.22c0,.13-26.35.24-58.83.24s-58.84-.11-58.84-.24S553.45,342,586,342,644.78,342.1,644.78,342.22Z"/><path class="cls-20" d="M504.82,333c0,.12-12.33.23-27.54.23s-27.54-.11-27.54-.23,12.33-.24,27.54-.24S504.82,332.91,504.82,333Z"/><path class="cls-19" d="M430.12,395.68h80.58a7.77,7.77,0,0,1,7.77,7.77v34.29a7.77,7.77,0,0,1-7.77,7.77H430.12a20,20,0,0,1-20-20v-9.74A20,20,0,0,1,430.12,395.68Z"/><path class="cls-19" d="M496.92,395.68H684.18a3.33,3.33,0,0,1,3.33,3.33v1.62a3.33,3.33,0,0,1-3.33,3.33H496.92A1.92,1.92,0,0,1,495,402V397.6A1.92,1.92,0,0,1,496.92,395.68Z"/><path class="cls-19" d="M496.92,437.24H684.18a3.33,3.33,0,0,1,3.33,3.33v1.62a3.33,3.33,0,0,1-3.33,3.33H496.92a1.92,1.92,0,0,1-1.92-1.92v-4.43A1.92,1.92,0,0,1,496.92,437.24Z"/><path class="cls-21" d="M681.77,437.24H516.48c-8.69,0-15.74-7.45-15.74-16.64h0c0-9.19,7.05-16.65,15.74-16.65H681.77A43.36,43.36,0,0,0,681.77,437.24Z"/><g class="cls-11"><path d="M500.74,445.52H433.39c-12.87,0-23.31-11-23.31-24.65h0c0-13.91,10.66-25.19,23.82-25.19h68.64C485.47,406.61,486.75,432.79,500.74,445.52Z"/></g><path class="cls-20" d="M661.69,422.14c0,.13-33.93.24-75.77.24s-75.77-.11-75.77-.24,33.92-.23,75.77-.23S661.69,422,661.69,422.14Z"/><path class="cls-20" d="M677.28,429.54c0,.13-33.92.23-75.76.23s-75.78-.1-75.78-.23,33.92-.23,75.78-.23S677.28,429.41,677.28,429.54Z"/><path class="cls-20" d="M672.68,415.28c0,.13-33.92.23-75.76.23s-75.78-.1-75.78-.23,33.92-.23,75.78-.23S672.68,415.15,672.68,415.28Z"/><path class="cls-20" d="M492.44,442c0,.13-15.88.23-35.46.23s-35.47-.1-35.47-.23,15.88-.23,35.47-.23S492.44,441.9,492.44,442Z"/><path class="cls-20" d="M492.44,399.82c0,.13-15.88.23-35.46.23s-35.47-.1-35.47-.23,15.88-.23,35.47-.23S492.44,399.69,492.44,399.82Z"/><path class="cls-22" d="M470,367.33H546.1a.53.53,0,0,1,.53.53v27.47a.53.53,0,0,1-.53.53H470a11.48,11.48,0,0,1-11.48-11.48v-5.58A11.48,11.48,0,0,1,470,367.33Z"/><path class="cls-22" d="M528.78,367.33H681.26A2.7,2.7,0,0,1,684,370v1.31a2.7,2.7,0,0,1-2.7,2.7H528.78a1.23,1.23,0,0,1-1.23-1.23v-4.26A1.23,1.23,0,0,1,528.78,367.33Z"/><path class="cls-22" d="M528.78,389.14H681.26a2.7,2.7,0,0,1,2.7,2.7v1.31a2.7,2.7,0,0,1-2.7,2.7H528.78a1.23,1.23,0,0,1-1.23-1.23v-4.26A1.23,1.23,0,0,1,528.78,389.14Z"/><path class="cls-21" d="M679.3,389.14H539.35a7.34,7.34,0,0,1-7.13-7.54h0a7.35,7.35,0,0,1,7.13-7.55H679.3Q673.9,381.6,679.3,389.14Z"/><g class="cls-11"><path d="M532.22,395.86H471.94c-7.39,0-13.38-6.33-13.38-14.15h0c0-7.94,6.09-14.38,13.6-14.38h61.52C519.81,373.59,520.85,388.58,532.22,395.86Z"/></g><path class="cls-20" d="M663,380.41c0,.13-27.56.23-61.56.23s-61.56-.1-61.56-.23,27.56-.23,61.56-.23S663,380.28,663,380.41Z"/><path class="cls-20" d="M675.65,384.47c0,.13-27.56.23-61.56.23s-61.56-.1-61.56-.23,27.56-.23,61.56-.23S675.65,384.34,675.65,384.47Z"/><path class="cls-20" d="M525.48,393c0,.12-12.91.23-28.82.23s-28.82-.11-28.82-.23,12.9-.24,28.82-.24S525.48,392.9,525.48,393Z"/><path class="cls-20" d="M525.48,370.69c0,.13-12.91.23-28.82.23s-28.82-.1-28.82-.23,12.9-.23,28.82-.23S525.48,370.56,525.48,370.69Z"/><path class="cls-20" d="M682.13,367.33c0,.13-47.33.23-105.7.23s-105.72-.1-105.72-.23,47.32-.23,105.72-.23S682.13,367.2,682.13,367.33Z"/><polygon class="cls-19" points="597.25 341.8 597.25 357.3 602.33 353.85 607.99 357.3 607.99 341.8 597.25 341.8"/></g><g id="Speech_Bubble_3" data-name="Speech Bubble 3"><path class="cls-23" d="M664.48,76.77H619.13c-9.6,0-17.38,8.23-17.38,18.38h0c0,9.8,7.25,17.78,16.38,18.33l4.1,7.51,5.13-7.45h37.12c9.6,0,17.39-8.23,17.39-18.39h0C681.87,85,674.08,76.77,664.48,76.77Z"/><path class="cls-20" d="M664.48,76.77h.46l1.36,0a17.62,17.62,0,0,1,5.08,1.35A18.11,18.11,0,0,1,678,83.42a20.23,20.23,0,0,1,2.69,4.75,19.52,19.52,0,0,1-3.13,19.35,17.94,17.94,0,0,1-6.14,4.72,17.71,17.71,0,0,1-7.93,1.54l-36.17,0,.21-.11c-1.63,2.37-3.37,4.9-5.12,7.46l-.24.34-.2-.37c-.53-1-1.1-2-1.67-3.06-.84-1.52-1.67-3-2.44-4.45l.21.14a18.78,18.78,0,0,1-5.08-1.12,18.11,18.11,0,0,1-10.41-11,19.83,19.83,0,0,1-.79-10,19.16,19.16,0,0,1,4-8.67A17.51,17.51,0,0,1,613,77.72c.34-.12.67-.26,1-.37l1-.28a18.06,18.06,0,0,1,2-.39c.68-.1,1.37-.09,2-.14h2l14.61,0,21.09.09,5.71,0,1.49,0,.5,0-.5,0-1.49,0-5.71.05L635.69,77l-14.61,0h-2c-.66,0-1.33,0-2,.14a15.21,15.21,0,0,0-2,.39l-1,.27c-.32.11-.64.25-1,.37a17,17,0,0,0-6.94,5.1,18.59,18.59,0,0,0-3.89,8.44,19.3,19.3,0,0,0,.78,9.77,18.1,18.1,0,0,0,5.76,8.12,17.57,17.57,0,0,0,4.36,2.52,18.06,18.06,0,0,0,4.93,1.09h.15l.06.13c.78,1.41,1.6,2.92,2.44,4.45l1.67,3.06-.44,0,5.14-7.45.07-.12h.13l36.17,0a17.43,17.43,0,0,0,7.76-1.47,17.64,17.64,0,0,0,6-4.59,19.16,19.16,0,0,0,3.15-18.93,20.11,20.11,0,0,0-2.61-4.7,17.9,17.9,0,0,0-6.52-5.24A18.38,18.38,0,0,0,664.48,76.77Z"/><polygon class="cls-19" points="621.88 89.41 623.51 92.89 627.14 93.45 624.51 96.16 625.13 99.99 621.88 98.18 618.63 99.99 619.25 96.16 616.62 93.45 620.26 92.89 621.88 89.41"/><polygon class="cls-19" points="635.68 89.41 637.3 92.89 640.94 93.45 638.31 96.16 638.93 99.99 635.68 98.18 632.42 99.99 633.05 96.16 630.41 93.45 634.05 92.89 635.68 89.41"/><polygon class="cls-19" points="649.47 89.41 651.1 92.89 654.73 93.45 652.1 96.16 652.72 99.99 649.47 98.18 646.22 99.99 646.84 96.16 644.21 93.45 647.85 92.89 649.47 89.41"/><polygon class="cls-19" points="663.27 89.41 664.89 92.89 668.53 93.45 665.9 96.16 666.52 99.99 663.27 98.18 660.01 99.99 660.64 96.16 658 93.45 661.64 92.89 663.27 89.41"/></g><g id="Speech_Bubble_2" data-name="Speech Bubble 2"><path class="cls-23" d="M126.91,135.74l7.4.76a23.82,23.82,0,0,0,12.06,8.62c11.27,3.51,23.51-2.36,28.42-13.65,6.16-14.18-1.07-30.72-15.28-34.95-11.39-3.39-23.63,2.78-28.34,14.27a26.5,26.5,0,0,0-.86,17.69h0Z"/><path class="cls-20" d="M126.91,135.74l.24-.48.68-1.4c.6-1.23,1.46-3,2.57-5.34h-.19a.11.11,0,0,0,.16,0,.11.11,0,0,0,0-.13,26.81,26.81,0,0,1-.62-12.3,25.46,25.46,0,0,1,2.64-7.52,24.73,24.73,0,0,1,5.48-6.95A23.32,23.32,0,0,1,146.2,97a22.71,22.71,0,0,1,10.12-.86,23.77,23.77,0,0,1,17.58,13l.67,1.36.55,1.42a29.4,29.4,0,0,1,.89,2.9,27.14,27.14,0,0,1,.7,5.93,26.63,26.63,0,0,1-2.38,11.18A25.12,25.12,0,0,1,168,140.3a23.31,23.31,0,0,1-8.39,4.62,22.61,22.61,0,0,1-15.92-1,24.11,24.11,0,0,1-9.25-7.45l-.08-.05-5.47-.48-1.44-.13-.5,0a2.56,2.56,0,0,0,.45.07l1.4.17,5.54.64-.07-.05a24,24,0,0,0,9.28,7.64,22.89,22.89,0,0,0,16.18,1.16,23.82,23.82,0,0,0,8.57-4.68,25.48,25.48,0,0,0,6.52-8.59,27.14,27.14,0,0,0,1.73-17.48,25.74,25.74,0,0,0-.91-3l-.55-1.46-.69-1.39a24.19,24.19,0,0,0-18-13.24,23,23,0,0,0-10.33.9,23.77,23.77,0,0,0-8.43,4.84,24.74,24.74,0,0,0-5.54,7.11,25.81,25.81,0,0,0-2.64,7.65,26.74,26.74,0,0,0,.75,12.44l.2-.1h0a.1.1,0,0,0-.15,0,.1.1,0,0,0,0,0c-1.08,2.37-1.91,4.21-2.48,5.48l-.62,1.39C127,135.59,126.9,135.75,126.91,135.74Z"/><path class="cls-24" d="M154.18,130.69l0,2.84-2.4,0,0-2.77a11,11,0,0,1-5.95-2.11l1.36-3.08a9.36,9.36,0,0,0,4.63,1.87l.06-4.24c-2.66-.72-5.62-1.7-5.57-5.33,0-2.69,1.91-5,5.7-5.37l0-2.82,2.4,0,0,2.77a10.43,10.43,0,0,1,4.85,1.62l-1.24,3.1a9.48,9.48,0,0,0-3.65-1.37l-.05,4.31c2.65.7,5.57,1.68,5.52,5.25C159.81,128,158,130.26,154.18,130.69Zm-2.25-11.25,0-3.6c-1.28.29-1.79,1-1.8,1.85S150.87,119.07,151.93,119.44Zm4,6.17c0-.88-.67-1.37-1.7-1.77l0,3.5C155.43,127.08,156,126.43,156,125.61Z"/></g><g id="Speech_Bubble_1" data-name="Speech Bubble 1"><path class="cls-23" d="M50.39,122.9l-1.94-7.59a26.3,26.3,0,0,0,3.39-15C51,88,41.47,77.91,29.75,77,15,75.93,2.93,88.91,4.19,104.46c1,12.47,10.79,22.4,22.61,23a23,23,0,0,0,16-5.37h0Z"/><path class="cls-20" d="M50.39,122.9l-.51-.07-1.48-.18L42.77,122l.08.19h0a.12.12,0,0,0,0-.16.09.09,0,0,0-.13,0A23.33,23.33,0,0,1,32,127a22.37,22.37,0,0,1-7.58,0,23,23,0,0,1-8.09-3,24.08,24.08,0,0,1-7.09-6.55,25.78,25.78,0,0,1-4.33-9.71,26.13,26.13,0,0,1,5.29-22l1-1.14,1.06-1a25.13,25.13,0,0,1,2.25-1.9,24.18,24.18,0,0,1,5-2.79A22.31,22.31,0,0,1,40,80.68a24.08,24.08,0,0,1,7,6.67,26.32,26.32,0,0,1,1.35,27.9v.09c.65,2.43,1.15,4.3,1.49,5.59.17.63.31,1.11.4,1.46s.15.51.15.51,0-.15-.1-.47-.2-.83-.34-1.44c-.33-1.33-.79-3.24-1.39-5.71v.09A26.19,26.19,0,0,0,52,103.49a26.55,26.55,0,0,0-4.68-16.42,24.75,24.75,0,0,0-7.16-6.83,22.82,22.82,0,0,0-20.86-1.83,24.14,24.14,0,0,0-5.12,2.85,23.27,23.27,0,0,0-2.29,1.94l-1.09,1.06-1,1.17a26.62,26.62,0,0,0-5.38,22.45,26.26,26.26,0,0,0,4.43,9.9,24.57,24.57,0,0,0,7.26,6.64,23,23,0,0,0,8.24,3,22.5,22.5,0,0,0,7.7-.08,23.42,23.42,0,0,0,10.75-5.13l-.16-.16h0a.11.11,0,0,0,0,.16.09.09,0,0,0,.06,0l5.72.52,1.45.12Z"/><polygon class="cls-19" points="27.54 114.45 14.97 105.57 17.91 100.93 26.34 106.89 36.82 92.22 41.03 95.58 27.54 114.45"/></g><g id="Character_3" data-name="Character 3"><path class="cls-25" d="M543.17,90.53s-4.54,18-4.93,30.67l-.13,4.23s10,8.8,18.43,9.35l7.05-18.33Z"/><path class="cls-25" d="M587.7,101.55c-1.92-8.76-2.65-19-9.54-24.67-5.11-4.24-10.94-5.42-17.43-5.13-3.2.14-6.8,1.7-9.59,3.37-3.81,2.28-5.43,6.91-7.27,11.12-3.69,8.43-3.22,19.85-.73,23l33.33,18.61c6.65-3.66,10.82-5.12,11.88-14.5A36.12,36.12,0,0,0,587.7,101.55Z"/><path class="cls-26" d="M577.8,83.84l-21-6.54c-6.75-1-11.59,7.6-12.29,14.78-.77,8-1.42,17.75-.75,23.76,1.36,12.07,10,14,10,14s0,.18,0,3.75l0,7.35c-.09,2.33.29,3.12,1.65,5,3.09,4.24,8.73,4.8,15.37,2.2,3.86-1.5,6.53-4.54,6.83-8.67l3.64-51.13A4.16,4.16,0,0,0,577.8,83.84Z"/><path class="cls-25" d="M546.53,103a1.52,1.52,0,0,0,1.35,1.61,1.41,1.41,0,0,0,1.55-1.32,1.51,1.51,0,0,0-1.34-1.62A1.43,1.43,0,0,0,546.53,103Z"/><path class="cls-25" d="M545.93,99.32c.17.21,1.31-.61,2.87-.54s2.68,1,2.86.75-.08-.46-.57-.86a3.84,3.84,0,0,0-2.28-.85,3.63,3.63,0,0,0-2.29.68C546,98.87,545.84,99.23,545.93,99.32Z"/><path class="cls-25" d="M560.3,103.25a1.52,1.52,0,0,0,1.35,1.61,1.41,1.41,0,0,0,1.55-1.33,1.52,1.52,0,0,0-1.34-1.61A1.43,1.43,0,0,0,560.3,103.25Z"/><path class="cls-25" d="M561.33,99.51c.18.21,1.31-.6,2.88-.53s2.68.94,2.86.75-.08-.46-.57-.87a3.94,3.94,0,0,0-2.28-.85,3.79,3.79,0,0,0-2.3.68C561.43,99.06,561.25,99.42,561.33,99.51Z"/><path class="cls-25" d="M555.23,110.25a10.12,10.12,0,0,0-2.52-.59c-.4-.06-.78-.16-.83-.45a2.19,2.19,0,0,1,.31-1.24c.41-1,.85-2.07,1.3-3.17,1.82-4.52,3.15-8.24,3-8.32s-1.78,3.53-3.59,8l-1.26,3.2a2.49,2.49,0,0,0-.26,1.65,1,1,0,0,0,.63.64,2.31,2.31,0,0,0,.68.13A9.08,9.08,0,0,0,555.23,110.25Z"/><path class="cls-27" d="M553.74,129.8a27.55,27.55,0,0,0,15.36-3.65s-4.07,8.24-15.38,6.64Z"/><path class="cls-27" d="M560.31,113.93a2.28,2.28,0,0,0-1.85-1.17,2.9,2.9,0,0,0-2.74,1.3,2.06,2.06,0,0,0-.17,1.4c.09.24,0,.12.19.29a5,5,0,0,0,2.06,1.47,2.14,2.14,0,0,0,2.37-.81A2.51,2.51,0,0,0,560.31,113.93Z"/><path class="cls-25" d="M560.08,111.66c-.25,0-.33,1.77-1.84,3s-3.31.92-3.34,1.17.39.37,1.16.42a4,4,0,0,0,2.77-.87,3.93,3.93,0,0,0,1.44-2.5C560.37,112.11,560.2,111.66,560.08,111.66Z"/><path class="cls-25" d="M560.74,93.45c.11.47,1.69.41,3.5.84s3.24,1.1,3.52.72c.13-.18-.09-.63-.65-1.13a5.86,5.86,0,0,0-2.54-1.24,5.66,5.66,0,0,0-2.81.06C561.06,92.92,560.69,93.23,560.74,93.45Z"/><path class="cls-25" d="M546.06,94.86c.35.33,1.49-.24,2.93-.48s2.68-.15,2.91-.59c.1-.2-.15-.55-.73-.82a4.32,4.32,0,0,0-2.47-.25,4.26,4.26,0,0,0-2.23,1.11C546,94.29,545.9,94.7,546.06,94.86Z"/><path class="cls-25" d="M556.76,76a2,2,0,0,0,0,.26h0Z"/><path class="cls-25" d="M571.42,134.65c.32-3.15-.88-6.31-.53-9.45.37-3.34,2.41-6.19,3.25-9.43,1.34-5.18-.5-10.69-1.17-16a11.94,11.94,0,0,1-7.39-4.5c-2.27-2.81-3.65-6.29-5-9.7a16.87,16.87,0,0,0,3.09,9.33,4,4,0,0,1-3.54-1.22,9.94,9.94,0,0,1-2.07-3.41,27.6,27.6,0,0,1-2-9.6,36.29,36.29,0,0,0,1.48,14,5.31,5.31,0,0,0-2.47.1,2.58,2.58,0,0,1-2.35-.53,3.16,3.16,0,0,1-.64-1.6,38.2,38.2,0,0,1-.38-12.21,38.78,38.78,0,0,0-2.6,6.77,13.82,13.82,0,0,0-.05,7.22,1,1,0,0,1-1.41,0,2.66,2.66,0,0,1-.62-1.51,19.79,19.79,0,0,1,.38-6.08c-1.14,2.13-1.51,4.6-2.14,6.95s-1.63,4.76-3.56,6.1a34,34,0,0,1,.28-9.21,29.27,29.27,0,0,1,2.56-7.31,21.62,21.62,0,0,1,4.6-6.78c3.34-3.09,4.74-1.76,6.88-.58l.25.11s0-.11,0-.16l.09-.48a30.29,30.29,0,0,1,16.87.83c4,1.39,4.4,10.55,5.38,6.2.6-2.64,3.83-.23,3.87-.16,4.74,9.06,9.78,23.42,10,46.12h0Z"/><path class="cls-25" d="M585.16,65.48a10.45,10.45,0,0,0-7.38-3.8,7.93,7.93,0,0,0-7.13,3.92,7.18,7.18,0,0,0,.88,8.22l3.51,3a9.13,9.13,0,0,0,8,.82,7.3,7.3,0,0,0,4.5-6.68A8.78,8.78,0,0,0,585.16,65.48Z"/><path class="cls-28" d="M582.45,81.94c-.67.34-2.59-2.77-6-5.22s-6.81-3.32-6.75-4.11c0-.36,1-.65,2.56-.48a12.26,12.26,0,0,1,5.67,2.33A13.14,13.14,0,0,1,582,79.24C582.68,80.73,582.76,81.79,582.45,81.94Z"/><path class="cls-19" d="M533.68,180.59l13.14-13,8.9,14.95c-.18,1.34-11.53,27.19-16.44,32.55-5.6,6.11-13.24,5.64-16.62-2.8-2.65-6.65-7.06-27.14-7.06-27.14Z"/><path class="cls-19" d="M548,141.45c-3.14,1.2-10.36,5.37-12.46,8.11a21.05,21.05,0,0,0-2.65,4.33c-1.65,3.83-4.77,32.18-4.77,32.18l14,10.72,12.19-49.6-.78-7.86Z"/><path class="cls-19" d="M543.36,223.31l.88-7.32s-2.69-13.07-3.69-24.42c-1.57-18,2.88-29.25,3.49-31.15.34-1.07,9.48-21.09,9.48-21.09s1.92,6.17,9.63,4.71c10.75-2,14.67-8.2,14.67-8.2l13.9,3.18s5.41,23,6.21,30.6c.43,4.09-4.66,27.17-4.66,27.17l8.19,13c.25.64-3.56,18.35-4.3,19.09s-14.08,4-14.24,4.6-25.41,11.78-25.4,11.33S545.38,229,545.38,229Z"/><path class="cls-20" d="M540.22,163.17a2.44,2.44,0,0,1,0,.54c-.05.41-.11.91-.18,1.52-.14,1.32-.36,3.23-.54,5.6a84.72,84.72,0,0,0,.33,18.49c.89,7.18,2.21,13.61,3.05,18.28.43,2.34.76,4.24,1,5.55.09.6.16,1.1.22,1.51a1.7,1.7,0,0,1,0,.54,3.57,3.57,0,0,1-.14-.52c-.09-.4-.19-.89-.32-1.49-.28-1.38-.67-3.24-1.13-5.51-.94-4.65-2.31-11.07-3.21-18.29a78.69,78.69,0,0,1-.18-18.6c.24-2.37.5-4.28.71-5.59.11-.66.2-1.17.27-1.51A1.88,1.88,0,0,1,540.22,163.17Z"/><path class="cls-20" d="M603.89,220.19c2.49,4.47,8.18,21.58,10.39,30.32C624.38,290.39,632.91,344,635.75,355c3.78,14.56,12.24,47.51,16.54,69.46l-20.68,9.53s-27.08-77.17-34.47-96.13c-7.66-19.65-20.43-56.72-20.43-56.72l-7.38,147-19.81.64s-6.78-41.42-9.47-66.18-3-75.73-3-88.66c0-15.75,6.43-51.19,6.43-51.19s7.73,6.13,22.22,3.78c11.54-1.87,35.46-11.25,35.46-11.25Z"/><path class="cls-22" d="M563.62,231.6a11.59,11.59,0,0,0,.12,1.69c.1,1.08.28,2.65.52,4.58.49,3.85,1.25,9.17,2.24,15s2,11.11,2.83,14.91c.4,1.89.75,3.43,1,4.48a10.07,10.07,0,0,0,.45,1.63,11.86,11.86,0,0,0-.25-1.67c-.22-1.17-.5-2.69-.85-4.52-.71-3.82-1.69-9.09-2.68-14.93s-1.8-11.14-2.37-15c-.29-1.85-.52-3.38-.7-4.55A9.38,9.38,0,0,0,563.62,231.6Z"/><path class="cls-22" d="M570.69,231.3s0-.27-.39-.43a2.33,2.33,0,0,0-1.51-.05,2.86,2.86,0,0,0-1,.42,1.8,1.8,0,0,0-.67,1.17,2.76,2.76,0,0,0,1.13,2.66,2.51,2.51,0,0,0,2.76.13,1.93,1.93,0,0,0,.77-1.09,3,3,0,0,0,.07-1.13,2.37,2.37,0,0,0-.67-1.44c-.28-.25-.5-.27-.5-.24s.16.13.36.39a2.48,2.48,0,0,1,.45,1.32,1.93,1.93,0,0,1-.72,1.76,2.09,2.09,0,0,1-2.23-.16,2.25,2.25,0,0,1-.95-2.12,1.34,1.34,0,0,1,.45-.88,2.76,2.76,0,0,1,.84-.42,2.57,2.57,0,0,1,1.35-.12C570.55,231.14,570.65,231.32,570.69,231.3Z"/><path class="cls-22" d="M558,268.68a19.22,19.22,0,0,0,2.39,1.73c1.5,1,3.55,2.5,5.75,4.21s4.12,3.35,5.5,4.56a18.49,18.49,0,0,0,2.28,1.91,15.42,15.42,0,0,0-2-2.2,69.87,69.87,0,0,0-5.43-4.71,66.44,66.44,0,0,0-5.86-4.09A13.15,13.15,0,0,0,558,268.68Z"/><path class="cls-22" d="M608.18,348.2a2.35,2.35,0,0,0,.85,0c.56,0,1.35-.07,2.33-.19a39.27,39.27,0,0,0,7.51-1.7A40.67,40.67,0,0,0,626,343.2c.87-.49,1.55-.92,2-1.24s.71-.51.69-.55a30.9,30.9,0,0,0-2.86,1.45,50.21,50.21,0,0,1-14.49,4.8A28.4,28.4,0,0,0,608.18,348.2Z"/><path class="cls-22" d="M611.54,346a7.15,7.15,0,0,0,2-.57c1.22-.43,2.9-1.11,4.7-2s3.39-1.74,4.51-2.42a8.31,8.31,0,0,0,1.75-1.23c-.08-.14-2.89,1.45-6.47,3.15S611.49,345.81,611.54,346Z"/><path class="cls-20" d="M549.39,413.51l-.1,21.82s-21,7.22-21.41,11.25l40,1.73,1.48-34Z"/><path class="cls-24" d="M561.73,434a1.75,1.75,0,0,1,1.06,2,1.56,1.56,0,0,1-1.89,1.12,1.83,1.83,0,0,1-1.1-2.14,1.6,1.6,0,0,1,2.08-.94"/><path class="cls-22" d="M567.9,448.31l0-3.43-38.37-.38s-1.82.74-1.67,2.08Z"/><path class="cls-23" d="M548.65,435.09c0,.2,1,.34,1.91,1.05s1.41,1.59,1.59,1.52-.06-1.28-1.21-2.12S548.61,434.9,548.65,435.09Z"/><path class="cls-23" d="M544.38,436.74c0,.2.78.59,1.41,1.49s.79,1.83,1,1.83.37-1.16-.44-2.27S544.39,436.54,544.38,436.74Z"/><path class="cls-23" d="M541.79,442c.18.05.49-1,0-2.12s-1.35-1.65-1.44-1.48.45.8.81,1.75S541.6,441.92,541.79,442Z"/><path class="cls-23" d="M549.19,430.12c.08.19,1-.06,2.09.07s2,.53,2.05.36-.69-.95-2-1.08S549.1,430,549.19,430.12Z"/><path class="cls-20" d="M643.89,411.22l7.67,25.13,11.48,18a2.8,2.8,0,0,1-.84,3.86h0a2.44,2.44,0,0,1-2.34.12c-4.8-2.33-22.42-11-22.88-12.85-.54-2.17-9.75-25.94-9.75-25.94Z"/><path class="cls-22" d="M662.2,458.23l-25.78-14.41.35,1.06a4.06,4.06,0,0,0,1.68,2.17c2.11,1.31,8,4.8,21.34,11.33a2.44,2.44,0,0,0,2.41-.15Z"/><g class="cls-29"><path class="cls-23" d="M638.62,434a1.66,1.66,0,0,1,1.06,1.88,1.48,1.48,0,0,1-1.74,1.13,1.73,1.73,0,0,1-1.12-2,1.52,1.52,0,0,1,1.94-1"/></g><path class="cls-23" d="M653.22,449.31a8.57,8.57,0,0,1,1.43-2.7,7.6,7.6,0,0,1,2.54-1.54c0-.07-.36-.16-.94,0a3.92,3.92,0,0,0-2,1.18,4.3,4.3,0,0,0-1.08,2.11C653.07,448.93,653.16,449.32,653.22,449.31Z"/><path class="cls-23" d="M656,452c.15.06.64-1,1.74-1.85s2.21-1,2.2-1.16a2.73,2.73,0,0,0-2.52.69A3.06,3.06,0,0,0,656,452Z"/><path class="cls-23" d="M648.69,446.18a26.21,26.21,0,0,1,2.5-3A25.36,25.36,0,0,1,654.4,441a5.53,5.53,0,0,0-3.57,1.71A6,6,0,0,0,648.69,446.18Z"/><path class="cls-23" d="M645.75,438.75c.12.13,1.23-.93,2.9-1.62s3.16-.75,3.16-.92a4.66,4.66,0,0,0-3.36.38A5.05,5.05,0,0,0,645.75,438.75Z"/><path class="cls-23" d="M643.33,431.43a12.36,12.36,0,0,1,3-1.76,11.3,11.3,0,0,1,3.4-.32c0-.07-.34-.29-1-.42a5.1,5.1,0,0,0-2.57.18,5.5,5.5,0,0,0-2.22,1.39C643.45,431,643.27,431.39,643.33,431.43Z"/><path class="cls-23" d="M645.8,428.29a2.25,2.25,0,0,0-.28-1,6.88,6.88,0,0,0-1.52-2.21,2.87,2.87,0,0,0-1.63-.95,1,1,0,0,0-1,.63,1.82,1.82,0,0,0,0,1.26,3.56,3.56,0,0,0,4.09,2.24,4.35,4.35,0,0,0,3.17-3.62,1.59,1.59,0,0,0-.33-1.23,1,1,0,0,0-1.18-.17,3.76,3.76,0,0,0-1.27,1.43,8,8,0,0,0-1,2.53,2.58,2.58,0,0,0-.08,1,12.62,12.62,0,0,1,1.37-3.3,3.49,3.49,0,0,1,1.14-1.21.51.51,0,0,1,.64.09,1.09,1.09,0,0,1,.18.82,3.89,3.89,0,0,1-2.79,3.11,3.11,3.11,0,0,1-3.5-1.85,1.34,1.34,0,0,1,0-.88.55.55,0,0,1,.56-.36,2.66,2.66,0,0,1,1.4.78A10.12,10.12,0,0,1,645.8,428.29Z"/><polygon class="cls-30" points="518.27 163.17 527.82 173.6 528.2 182.67 517.13 185.37 516.56 185.37 515.85 179.51 509.46 170.53 518.27 163.17"/><path class="cls-22" d="M508.06,155.63a55.9,55.9,0,0,1-82.13,2.84h0c-23.38-23.16-24.59-62.11-2.68-86.84a55.89,55.89,0,0,1,82.12-2.84,62.14,62.14,0,0,1,17.25,32.83C526.13,120.39,521.35,140.63,508.06,155.63Zm-79.47-.16a52.16,52.16,0,0,0,76.63-2.65,59.66,59.66,0,0,0-2.51-81,52.17,52.17,0,0,0-76.62,2.65,59.55,59.55,0,0,0-13.58,50.4A57.94,57.94,0,0,0,428.59,155.47Z"/><path class="cls-20" d="M508.06,155.63a55.9,55.9,0,0,1-82.13,2.84h0c-23.38-23.16-24.59-62.11-2.68-86.84a55.89,55.89,0,0,1,82.12-2.84,62.14,62.14,0,0,1,17.25,32.83C526.13,120.39,521.35,140.63,508.06,155.63Zm-79.47-.16a52.16,52.16,0,0,0,76.63-2.65,59.66,59.66,0,0,0-2.51-81,52.17,52.17,0,0,0-76.62,2.65,59.55,59.55,0,0,0-13.58,50.4A57.94,57.94,0,0,0,428.59,155.47Z"/><path class="cls-22" d="M509.49,152.68a55.92,55.92,0,0,1-82.13,2.84h0C404,132.36,402.77,93.4,424.67,68.67a55.92,55.92,0,0,1,82.13-2.84A62.12,62.12,0,0,1,524,98.66,63.84,63.84,0,0,1,509.49,152.68ZM430,152.51a52.16,52.16,0,0,0,76.63-2.65,59.65,59.65,0,0,0-2.51-81,52.16,52.16,0,0,0-76.63,2.65,59.55,59.55,0,0,0-13.58,50.39A58,58,0,0,0,430,152.51Z"/><path class="cls-22" d="M574,230.24l1.84-1.9c1.65-1.68.73-5.54-1-7.41l-64.92-71-8.68,8.88,64.82,70.84C568.25,232,571.87,232.41,574,230.24Z"/><path class="cls-30" d="M514.17,158.53a1.46,1.46,0,0,0-1.31-.37,2.48,2.48,0,0,0-1,.76,12.87,12.87,0,0,0-3.35,8.61c0,1.36.34,2.93,1.49,3.55l1.3-.8c.41-.55,1.61-1.47,1.77-2.15.68-2.85-.29-2.73,1.4-7.68A1.77,1.77,0,0,0,514.17,158.53Z"/><path class="cls-30" d="M513.86,162.57a7.14,7.14,0,0,1,1.29-1.8,1.85,1.85,0,0,1,1.72-.54c.9.3,1.34,1.67,1.23,2.94A11.5,11.5,0,0,1,517,166.8l-3.21,7.35-.62-.48a.86.86,0,0,1-1.39-.33,4.16,4.16,0,0,1-.3-2A20,20,0,0,1,513.86,162.57Z"/><path class="cls-30" d="M515.43,169.9a17.39,17.39,0,0,1,3.21-4.54,4,4,0,0,1,1.5-1.2,1.35,1.35,0,0,1,1.67.52,2.15,2.15,0,0,1-.23,1.8,84.22,84.22,0,0,1-5.52,10.25l-1.91-2C513.28,173,514.7,171.63,515.43,169.9Z"/><path class="cls-30" d="M567.22,192.57l-1.76-.4-9.21-8.3-5-4.47a2.9,2.9,0,0,0-1.48-.72l-5-.88a3.09,3.09,0,0,0,1.5,3.62l2.73,1.49,2.5,3.13-.32.68s-16.39,2.69-17.42,4a1.85,1.85,0,0,0,.46,2.76,2.51,2.51,0,0,0,1.25.12s-.8,2,1.59,3.73c0,0-1.82,2.53,1.37,3.73a5.27,5.27,0,0,0,2.72,2.52,112.41,112.41,0,0,0,12.63,1.81H565.5l2.36.41Z"/><path class="cls-31" d="M535.06,193.64a12.43,12.43,0,0,0,4.54.26,18,18,0,0,0,4.48-.7c0-.17-2,0-4.52.16A39.57,39.57,0,0,0,535.06,193.64Z"/><path class="cls-31" d="M537,197.34c0,.08.43.14,1.11.24s1.63.23,2.7.3a22.26,22.26,0,0,0,2.72-.07,3.88,3.88,0,0,0,1.12-.1c0-.08-.42-.23-1.12-.28s-1.66,0-2.69-.1-2-.15-2.71-.14S537,197.27,537,197.34Z"/><path class="cls-31" d="M538.07,201a18.64,18.64,0,0,0,4.42.63,9.76,9.76,0,0,1,3,.5c.72.28,1.05.69,1.11.63s-.2-.56-1-1a7.65,7.65,0,0,0-3.14-.68A18.41,18.41,0,0,0,538.07,201Z"/><path class="cls-19" d="M591.72,139s6.93,1.26,12.18,12.18c2.91,6,16.48,42.33,17.28,45.51,3.45,13.61-3.22,22.39-9.63,23-7.07.65-43.59-11.81-43.59-11.81l-.81-16.5,33.32,5.35-16-32.85S583.85,142,591.72,139Z"/><path class="cls-20" d="M611.67,205.76a6.2,6.2,0,0,0-.89-2.2,14.41,14.41,0,0,0-3.75-4.21,13.45,13.45,0,0,0-5-2.38,5.41,5.41,0,0,0-2.25-.18c0,.09.85.16,2.17.55a15.8,15.8,0,0,1,4.77,2.45,16.48,16.48,0,0,1,3.74,4C611.25,205,611.59,205.8,611.67,205.76Z"/><path class="cls-20" d="M602.4,218.28l-.17,0-.5-.11c-.45-.1-1.08-.3-1.92-.54-1.67-.51-4.09-1.3-7.14-2.32-6.1-2.06-14.72-5.07-24.86-8.7l-.15-.05v-.18c-.24-4.74-.49-9.92-.76-15.32l0-.34.32.06,8.19,1.4,25.13,4.34-.25.35L589.2,174l-3.11-6.51-.8-1.74a3.52,3.52,0,0,1-.25-.61,5,5,0,0,1,.32.58l.87,1.69,3.22,6.45,11.23,22.82.22.43-.47-.07L575.3,192.7l-8.2-1.4.3-.29c.26,5.4.5,10.58.73,15.33l-.16-.23L592.76,215l7.09,2.46c.83.27,1.46.49,1.9.62l.49.15Z"/><path class="cls-20" d="M593.2,139.68c0,.09-.94.69-2.32,1.95a21.22,21.22,0,0,0-4.43,5.82,22.13,22.13,0,0,0-2.2,7.1c-.25,1.91-.19,3.11-.29,3.12a3.13,3.13,0,0,1-.11-.85,14.17,14.17,0,0,1,0-2.32,18.86,18.86,0,0,1,.6-3.39,21.16,21.16,0,0,1,1.52-3.92,20.54,20.54,0,0,1,2.28-3.48,18.34,18.34,0,0,1,2.37-2.38,12.58,12.58,0,0,1,1.82-1.29A2.77,2.77,0,0,1,593.2,139.68Z"/></g><g id="Character_2" data-name="Character 2"><path class="cls-32" d="M209,161.91s-7.36,43.31-7,47.35,2.32,10.5,6.76,11.6a18.8,18.8,0,0,0,8.53,0l-5.33-53.19Z"/><path class="cls-32" d="M230.46,124.91,230,80.16c-.48-11.12,5.26-20.69,15.79-20.88l1,0c9.81.43,17.66,8.75,18,19.12.35,9.64.63,20.31.37,25.46-.54,10.68-10.71,11.9-10.71,11.9s-.06,6.49,0,9.63l-8.13,11.93V138Z"/><path class="cls-33" d="M254.42,115.8a23.53,23.53,0,0,1-13-4.69s2.85,8.17,13,7.65Z"/><path class="cls-20" d="M261.54,87.65a1.48,1.48,0,0,1-1.45,1.48,1.41,1.41,0,0,1-1.43-1.44,1.48,1.48,0,0,1,1.45-1.48A1.41,1.41,0,0,1,261.54,87.65Z"/><path class="cls-20" d="M262.43,83.06c-.19.19-1.25-.71-2.8-.78s-2.72.71-2.88.5.11-.44.62-.8a3.86,3.86,0,0,1,2.32-.65,3.67,3.67,0,0,1,2.22.87C262.37,82.61,262.52,83,262.43,83.06Z"/><path class="cls-20" d="M247.68,87.65a1.5,1.5,0,0,1-1.45,1.48,1.41,1.41,0,0,1-1.43-1.44,1.48,1.48,0,0,1,1.44-1.48A1.42,1.42,0,0,1,247.68,87.65Z"/><path class="cls-20" d="M247.2,82.77c-.19.19-1.25-.71-2.8-.77s-2.72.71-2.88.5.11-.45.62-.81a3.79,3.79,0,0,1,2.32-.64,3.73,3.73,0,0,1,2.22.86C247.14,82.32,247.29,82.69,247.2,82.77Z"/><path class="cls-20" d="M252.27,95.63a9.37,9.37,0,0,1,2.54-.37c.4,0,.78-.1.86-.38a2.31,2.31,0,0,0-.22-1.25l-1-3.25c-1.45-4.61-2.48-8.4-2.3-8.46s1.49,3.63,2.94,8.25l1,3.26a2.53,2.53,0,0,1,.14,1.65,1,1,0,0,1-.68.58,2.06,2.06,0,0,1-.67.07A9.54,9.54,0,0,1,252.27,95.63Z"/><path class="cls-20" d="M247.9,77.66c-.23.41-1.72-.09-3.55-.22s-3.37.12-3.54-.32c-.07-.21.25-.58.91-.89a5.87,5.87,0,0,1,5.4.42C247.73,77.06,248,77.47,247.9,77.66Z"/><path class="cls-20" d="M262.69,78.24c-.34.36-1.59-.06-3.11-.12s-2.82.17-3.1-.23c-.13-.19.08-.56.66-.9a4.94,4.94,0,0,1,5,.28C262.67,77.67,262.83,78.06,262.69,78.24Z"/><path class="cls-32" d="M230.46,88.11c-.17-.09-6.85-2.48-6.92,4.83s6.89,5.88,6.91,5.67S230.46,88.11,230.46,88.11Z"/><path class="cls-33" d="M228.36,95.81s-.12.09-.33.19a1.14,1.14,0,0,1-.9,0c-.73-.29-1.33-1.52-1.35-2.84a4.38,4.38,0,0,1,.35-1.82,1.46,1.46,0,0,1,.92-1,.59.59,0,0,1,.7.36c.09.2.05.35.09.36s.15-.12.09-.42a.77.77,0,0,0-.27-.46A.86.86,0,0,0,227,90a1.74,1.74,0,0,0-1.27,1.12,4.46,4.46,0,0,0-.43,2c0,1.47.73,2.86,1.73,3.17a1.23,1.23,0,0,0,1.1-.18C228.34,96,228.38,95.83,228.36,95.81Z"/><path class="cls-20" d="M247.4,96.64c.23,0,.24,1.67,1.61,2.85s3.05,1,3.07,1.23-.38.33-1.09.35a3.78,3.78,0,0,1-2.56-.93,3.64,3.64,0,0,1-1.25-2.39C247.11,97.05,247.29,96.63,247.4,96.64Z"/><path class="cls-20" d="M278.71,68.82a1.71,1.71,0,0,0-.76-1,4.77,4.77,0,0,0-2.58-.48,14,14,0,0,1-6.31-1.75,7.4,7.4,0,0,0,1.88-1.36,4.78,4.78,0,0,0,1.3-4.55,1.05,1.05,0,0,0-.54-.71c-.45-.15-.84.31-1.16.68A3.63,3.63,0,0,1,267,61.16a5.84,5.84,0,0,1-2.62-.85l-.09-.1-1-1.15h0c-2.57-2.76-4.78-4.67-7.08-5.68-3.36-1.48-9-2.13-12.52-1.19a9.78,9.78,0,0,0-7.26,7.72c-1.95-1.79-4.92-1.81-7.33-.82l-.06,0c-2.69,1-4.24,3.95-5.06,6.83-.05.16-.09.32-.13.47A10.86,10.86,0,0,1,220.17,70c-.26.16-.56.35-.6.66a.94.94,0,0,0,.45.76,5.1,5.1,0,0,0,2.16,1,13.12,13.12,0,0,1-.91,2c-.31.54-.67,1.18-.41,1.75a1.11,1.11,0,0,0,1.17.56,3.2,3.2,0,0,0,1.25-.59c-.3.76-.61,1.51-.92,2.26a6,6,0,0,0,2.92-.17c.54,2.71.91,7.71,1.55,9.55,1.83.06,2.28-.15,3.21.19,1.19.43.71,2.67,2.27,2,.8-.32,2.05-3.48,2.32-4.33A43.73,43.73,0,0,0,236.53,68a12.82,12.82,0,0,1,3.95-2.94l-.12.11c2.84-1,6-2,8.72-.55,2.07,1.11,3.26,3.41,4.8,5.25a14.2,14.2,0,0,0,10.62,5.62c.36,3.23.42,8.51.54,11.53l2.5-6v0a11.64,11.64,0,0,0,.53-1.06l.05-.1v0c.26-.57.5-1.14.82-1.7l0,0c1.53,1.46,3.82-.71,2.62-2.48a4,4,0,0,0-.85-.93,2.72,2.72,0,0,0,2.68.77A2.34,2.34,0,0,0,275,73.29a2,2,0,0,0-1.11-1.61,6,6,0,0,0,3.62-.79A2,2,0,0,0,278.71,68.82Z"/><path class="cls-22" d="M239.56,61.17a10,10,0,0,0-1,1A7.7,7.7,0,0,0,237,65.68a14,14,0,0,0-.29,2.71c0,1,.05,2,.11,3.16a29.15,29.15,0,0,1,0,3.51,12.88,12.88,0,0,1-.24,1.84,4.07,4.07,0,0,1-.74,1.79,1.47,1.47,0,0,1-1.43.49,2.29,2.29,0,0,1-1.28-.78,5.73,5.73,0,0,1-.94-2.73l.21,0a9.08,9.08,0,0,1-1.26,2.22,2.91,2.91,0,0,1-2,1.11,1.85,1.85,0,0,1-1-.2,1.81,1.81,0,0,1-.7-.75,1.87,1.87,0,0,1-.2-1,1.37,1.37,0,0,1,.33-.83l.11.1a6.47,6.47,0,0,1-2.2,1.7,4.41,4.41,0,0,1-.67.27.78.78,0,0,1-.24.06s.07,0,.23-.1.37-.16.65-.3a6.67,6.67,0,0,0,2.12-1.73l.11.11a1.4,1.4,0,0,0-.09,1.58,1.69,1.69,0,0,0,.63.67,1.8,1.8,0,0,0,.95.17A2.78,2.78,0,0,0,231,77.77a9.4,9.4,0,0,0,1.21-2.17l.15-.35.06.38a5.52,5.52,0,0,0,.9,2.61,2,2,0,0,0,1.14.7,1.27,1.27,0,0,0,1.22-.42,3.7,3.7,0,0,0,.68-1.67,12.47,12.47,0,0,0,.24-1.81,28.75,28.75,0,0,0,0-3.48c-.05-1.11-.11-2.17-.09-3.17a14.22,14.22,0,0,1,.32-2.75,7.7,7.7,0,0,1,1.69-3.56A4.1,4.1,0,0,1,239.56,61.17Z"/><path class="cls-22" d="M270.75,72s0,0-.08.07l-.25.19a3.73,3.73,0,0,1-.44.29,6.39,6.39,0,0,1-.61.34,8.58,8.58,0,0,1-4.34.77,11.17,11.17,0,0,1-6.09-2.46,20.75,20.75,0,0,1-5.17-6.46c-.73-1.3-1.31-2.64-2-3.87a14.37,14.37,0,0,0-2.22-3.29,6.87,6.87,0,0,0-2.9-1.9,4.89,4.89,0,0,0-1.54-.21,5,5,0,0,0-1.41.27A5.81,5.81,0,0,0,241.62,57a6,6,0,0,0-1.16,1.55,8.1,8.1,0,0,0-.54,1.6.87.87,0,0,1,0-.11c0-.09,0-.2,0-.33a5.51,5.51,0,0,1,.4-1.2,5.7,5.7,0,0,1,1.15-1.61,5.85,5.85,0,0,1,2.16-1.39,5.65,5.65,0,0,1,1.46-.29,4.89,4.89,0,0,1,1.59.2,7,7,0,0,1,3,1.94A14.36,14.36,0,0,1,252,60.71c.66,1.24,1.25,2.57,2,3.87a20.7,20.7,0,0,0,5.1,6.39,11.06,11.06,0,0,0,6,2.47,8.78,8.78,0,0,0,4.29-.68A14.53,14.53,0,0,0,270.75,72Z"/><path class="cls-22" d="M271.72,67.27s-.12.11-.36.26a7.73,7.73,0,0,1-1.08.57,10,10,0,0,1-1.71.57,11.18,11.18,0,0,1-2.18.28,11.6,11.6,0,0,1-2.19-.19,10.07,10.07,0,0,1-1.73-.49,8.39,8.39,0,0,1-1.1-.52c-.25-.14-.38-.23-.37-.25s.57.27,1.53.6a11.42,11.42,0,0,0,1.71.44,13.07,13.07,0,0,0,2.15.16,11.6,11.6,0,0,0,2.13-.26,10.51,10.51,0,0,0,1.7-.51C271.16,67.56,271.7,67.23,271.72,67.27Z"/><path class="cls-22" d="M245.26,407l-1,24.17s22.9,9.19,23.12,13.67L223,444.44l.09-37.72Z"/><path class="cls-24" d="M230.55,429a1.93,1.93,0,0,0-1.27,2.18,1.75,1.75,0,0,0,2,1.35,2,2,0,0,0,1.33-2.31,1.78,1.78,0,0,0-2.26-1.16"/><g class="cls-29"><path class="cls-23" d="M223,444.44l.15-3.8,42.5,1.77s2,.92,1.73,2.39Z"/></g><path class="cls-20" d="M245,430.9c0,.22-1.09.32-2.16,1.05s-1.65,1.68-1.85,1.59.13-1.41,1.45-2.27S245,430.69,245,430.9Z"/><path class="cls-20" d="M249.62,433c0,.22-.89.6-1.64,1.57s-1,2-1.17,2-.35-1.31.6-2.49S249.62,432.75,249.62,433Z"/><path class="cls-20" d="M252.22,438.88c-.19.05-.49-1.1.08-2.35s1.58-1.74,1.67-1.55-.54.86-1,1.89S252.44,438.86,252.22,438.88Z"/><path class="cls-20" d="M244.63,425.36c-.09.21-1.08-.11-2.31,0s-2.18.48-2.29.28.81-1,2.25-1.07S244.74,425.18,244.63,425.36Z"/><path class="cls-20" d="M245.2,425.09a41.06,41.06,0,0,1,.06,5.82l-.18-.29c2.6,1,6,2.45,9.71,4.27a51.81,51.81,0,0,1,9.83,6,10.93,10.93,0,0,1,2.43,2.62c.47.76.41,1.33.33,1.3a3.16,3.16,0,0,0-.56-1.12,12.3,12.3,0,0,0-2.52-2.35,63.23,63.23,0,0,0-9.83-5.73c-3.64-1.81-7.05-3.28-9.59-4.43l-.19-.08v-.21A40.65,40.65,0,0,1,245.2,425.09Z"/><path class="cls-20" d="M216.56,238.44v21.9l8.17,69.94s-2.59,32.8-4.18,51.32c-1.38,16.08.87,44.08.87,44.08h24.23l8.67-93.39,5.38-58.24,9.75-34.5Z"/><path class="cls-22" d="M259.5,402.77,253.16,426s20.21,14.62,19.43,19l-43.06-11.39L238,397Z"/><path class="cls-24" d="M240.31,420.51a1.87,1.87,0,0,0-1.72,1.8,1.8,1.8,0,0,0,1.68,1.82,2,2,0,0,0,1.81-1.92c-.09-.93-1.08-1.91-1.94-1.68"/><g class="cls-29"><path class="cls-23" d="M229.53,433.66l1-3.66,40.92,12.29s1.71,1.39,1.15,2.76Z"/></g><path class="cls-20" d="M253.91,426c-.06.22-1.13.05-2.34.49s-2,1.23-2.15,1.09.45-1.34,1.92-1.85S254,425.77,253.91,426Z"/><path class="cls-20" d="M258,429.13c0,.23-1,.37-1.94,1.12s-1.38,1.69-1.58,1.63-.05-1.36,1.13-2.27S258,428.92,258,429.13Z"/><path class="cls-20" d="M259.17,435.53c-.2,0-.23-1.2.6-2.27s1.93-1.3,2-1.09-.72.7-1.38,1.59S259.39,435.56,259.17,435.53Z"/><path class="cls-20" d="M254.8,420.5c-.13.18-1-.39-2.24-.62s-2.22-.07-2.29-.29,1-.78,2.44-.49S255,420.35,254.8,420.5Z"/><polygon class="cls-20" points="278.81 239.93 279.92 251.84 278.58 338.35 259.41 407.83 254.76 424.68 230.02 419.75 249.09 239.96 278.81 239.93"/><path class="cls-22" d="M278.06,340.16s0,.14-.09.41-.18.68-.31,1.2c-.29,1.07-.71,2.63-1.25,4.65l-4.75,17.47L255,424.75l-.05.2-.2,0L230,420l-.22,0,0-.24c1.26-7,2.58-14.42,3.93-21.93,4-22.25,7.76-43.24,11.06-61.58v.08c-4.1-27.2-7.37-48.9-9.24-61.35v0L231.41,267l-1-2.06c-.24-.46-.34-.7-.34-.7s.13.22.38.68l1.1,2,4.21,7.9v0h0c1.92,12.45,5.27,34.13,9.47,61.32v.07c-3.28,18.34-7,39.34-11,61.59-1.35,7.51-2.67,14.88-3.94,21.93l-.18-.28,24.74,4.94-.25.16c6.86-24.74,12.71-45.86,16.85-60.81,2.09-7.45,3.74-13.36,4.87-17.43.57-2,1-3.57,1.32-4.63l.34-1.19C278,340.29,278.06,340.16,278.06,340.16Z"/><path class="cls-22" d="M274.37,247a8.77,8.77,0,0,1-1.35,2.09,18.63,18.63,0,0,1-4.4,4,17.34,17.34,0,0,1-5.35,2.31,7.18,7.18,0,0,1-2.37.31,25.73,25.73,0,0,0,7.48-3A27.72,27.72,0,0,0,274.37,247Z"/><path class="cls-32" d="M327.1,116.5a1.15,1.15,0,0,0-.23-1.52.5.5,0,0,0-.37-.12c-.5.09-1.8,1.09-2.81,1.11s-2.71-.31-3.71.68-3.45,6.39-3.77,7.56-1.39,11.48-1.39,11.48Z"/><path class="cls-20" d="M331.34,115.15c0,.07-12,5.65-17.26,8.09a2,2,0,0,0-.51,3.1h0a1.78,1.78,0,0,0,2.14.35l17.15-8.84,1.42-2.27Z"/><path class="cls-32" d="M318.68,126.53l3.81-3,5-7.72s2.06-1.3,3.12-.48a2.15,2.15,0,0,1,.92,2.81s2.85.72,3.05,1.72a12.25,12.25,0,0,1-.41,3.46,6.42,6.42,0,0,1,0,2.88,4.86,4.86,0,0,0-.36,1.85s1.84,2.39,1.05,4.83-4.11,7.87-5.89,9.28a38.44,38.44,0,0,1-5.14,3.09l-2.2,4.86-9.11-8.72Z"/><path class="cls-33" d="M327.36,116.17a2.45,2.45,0,0,1-.22.41l-.68,1.1c-.58.92-1.4,2.18-2.3,3.56l-1.29,2a4.81,4.81,0,0,1-.65.8,3.4,3.4,0,0,1-.73.5,6.18,6.18,0,0,1-1.19.42,2.32,2.32,0,0,1-.44.09,1.7,1.7,0,0,1,.43-.17,6.59,6.59,0,0,0,1.14-.47c1-.43,1.63-1.88,2.57-3.23s1.74-2.63,2.35-3.53c.29-.42.53-.78.73-1.06A1.87,1.87,0,0,1,327.36,116.17Z"/><path class="cls-33" d="M328.53,124.2a33,33,0,0,1,1.47-3,29.55,29.55,0,0,1,1.64-2.94,33,33,0,0,1-1.47,3A28.2,28.2,0,0,1,328.53,124.2Z"/><path class="cls-33" d="M329.73,129a3.69,3.69,0,0,1-.13-.43,1.72,1.72,0,0,0-.6-.8,1.6,1.6,0,0,0-.92-.31c-.25,0-.41,0-.42,0s.14-.11.42-.14a1.51,1.51,0,0,1,1,.28,1.64,1.64,0,0,1,.61.93C329.79,128.85,329.75,129,329.73,129Z"/><path class="cls-33" d="M334,130.47s-.16-.09-.38-.27a4.56,4.56,0,0,0-.89-.62,1.63,1.63,0,0,0-1-.17c-.26.05-.35.22-.37.2s0-.23.34-.33a1.49,1.49,0,0,1,1.12.13,3.11,3.11,0,0,1,.9.69A1.5,1.5,0,0,1,334,130.47Z"/><path class="cls-33" d="M332.33,126.41a8.47,8.47,0,0,1,.84-1.58,9.21,9.21,0,0,1,1-1.48,8.47,8.47,0,0,1-.84,1.58A7.63,7.63,0,0,1,332.33,126.41Z"/><path class="cls-33" d="M325,126.76s0-.16-.09-.4a1.54,1.54,0,0,0-.52-.78,1.41,1.41,0,0,0-.86-.28c-.23,0-.38,0-.39,0s.12-.12.38-.16a1.34,1.34,0,0,1,1,.26,1.45,1.45,0,0,1,.54.91C325.1,126.6,325.05,126.77,325,126.76Z"/><path class="cls-22" d="M315.05,126.74s.17-.18.33-.51a1.84,1.84,0,0,0,.09-1.41,1.81,1.81,0,0,0-1-1c-.33-.14-.56-.14-.56-.17a.88.88,0,0,1,.61,0,1.73,1.73,0,0,1,1.07,1,1.86,1.86,0,0,1-.14,1.54C315.29,126.64,315.06,126.75,315.05,126.74Z"/><path class="cls-32" d="M283,151.14l14.46,13.08,17.75-28,11.54,7.2s-17.3,42.11-22,45.83-8.64,2.75-14.67-.19-27.52-25.82-27.52-25.82Z"/><path class="cls-33" d="M298,175.86c-.14,0,.25-2.67.08-5.94s-.82-5.85-.68-5.89a21.27,21.27,0,0,1,.6,11.83Z"/><path class="cls-19" d="M224,129.72s12.29.19,12.47,16.39S233.32,184,233.32,184l-31.38-5.85s3.89-30.16,7.22-38.84S218.89,128.25,224,129.72Z"/><path class="cls-19" d="M229.81,118.06l-.39,2.64s-16.77,11.71-17.72,14.74c-1.47,4.69,1.74,44.3,3.15,55.52s1.71,36,1.71,36c-1,2.91-2.2,5.54-2.59,9.6s2.59,7.72,2.59,7.72c18,6.2,40,1.44,63.75-4.29l-.22-7.13-7.78-77.44s2.27-20.12-7-25.95c-1-.64-9.12-5.5-9.12-5.5Z"/><g class="cls-11"><path d="M256.78,151.62a62.92,62.92,0,0,0,5.52,23.89,70.48,70.48,0,0,0,14.11,20.7L273.9,173Z"/></g><path class="cls-19" d="M270.86,132.07c-2.94-2.51-8.41-3.88-11.53-1.62a9.91,9.91,0,0,0-3.78,4.93c-2.67,8.23-1.07,17.09,1.06,23.66S269,178.26,269,178.26l25.44-16.33s-17-21.82-18.81-24.08A47.17,47.17,0,0,0,270.86,132.07Z"/><path class="cls-20" d="M270.86,132.07a5.5,5.5,0,0,1,.54.46,19.52,19.52,0,0,1,1.4,1.5c1.18,1.38,2.73,3.52,4.83,6.13l17,21.63.16.2-.21.13-24,15.46-1.39.89-.17.11-.13-.16c-2.84-3.55-5.49-7.13-7.86-10.72a57,57,0,0,1-3.25-5.47,25,25,0,0,1-1.25-2.86c-.34-1-.61-2-.88-2.91-2.13-7.73-2.18-15.31-.24-21.07a9.18,9.18,0,0,1,2.23-3.66,8.51,8.51,0,0,1,3.06-2.12,8.14,8.14,0,0,1,3.17-.4,11.66,11.66,0,0,1,2.63.47,12.41,12.41,0,0,1,3.37,1.58,5.88,5.88,0,0,1,1,.81s-.35-.28-1.07-.73a12.78,12.78,0,0,0-3.37-1.47,10.94,10.94,0,0,0-2.59-.43,8,8,0,0,0-3.07.42,8.34,8.34,0,0,0-2.95,2.1,8.91,8.91,0,0,0-2.13,3.54c-1.87,5.7-1.78,13.18.35,20.83.27,1,.54,1.93.88,2.88a22.26,22.26,0,0,0,1.23,2.8,57.15,57.15,0,0,0,3.23,5.41c2.37,3.58,5,7.14,7.84,10.68l-.29,0,1.39-.89,24.06-15.42-.05.33-16.88-21.74c-2.07-2.64-3.6-4.81-4.74-6.2-.56-.7-1-1.22-1.35-1.55S270.85,132.09,270.86,132.07Z"/><path class="cls-20" d="M211.37,144.41a1.8,1.8,0,0,1,.08.47c0,.36.07.81.11,1.35.09,1.25.2,2.93.34,5,.26,4.27.61,10,1,16.42s.81,12.21,1.17,16.4c.18,2,.33,3.71.44,5,0,.54.08,1,.11,1.35a2.53,2.53,0,0,1,0,.48,1.69,1.69,0,0,1-.1-.47c-.06-.36-.12-.8-.2-1.34-.16-1.16-.37-2.85-.59-4.95-.44-4.19-.91-10-1.31-16.4s-.66-12.22-.85-16.43c-.07-2.05-.14-3.73-.19-5,0-.54,0-1,0-1.36A2.42,2.42,0,0,1,211.37,144.41Z"/><path class="cls-20" d="M267.63,238.44a2,2,0,0,1-.47.15l-1.37.35c-.6.16-1.33.32-2.19.49s-1.83.38-2.91.55c-2.17.39-4.76.71-7.65,1s-6.08.45-9.43.49-6.54-.1-9.44-.3-5.49-.52-7.66-.9c-1.09-.15-2.07-.34-2.92-.52s-1.6-.32-2.19-.47l-1.38-.35a1.9,1.9,0,0,1-.47-.16,2.77,2.77,0,0,1,.49.06l1.39.26c.6.13,1.34.25,2.2.39s1.84.31,2.92.45c2.17.33,4.77.57,7.65.79s6.07.28,9.4.26,6.52-.22,9.4-.45,5.47-.55,7.64-.9c1.08-.15,2.06-.33,2.91-.48s1.6-.28,2.2-.4l1.39-.26A1.52,1.52,0,0,1,267.63,238.44Z"/></g><g id="Character_1" data-name="Character 1"><path class="cls-20" d="M77.23,72.55a12.78,12.78,0,0,0-10.17,2.68,13.61,13.61,0,0,0-4.64,6.13,9.89,9.89,0,0,0,.35,7.72,11.38,11.38,0,0,0,6,5,12.39,12.39,0,0,0,6.38,1,7.3,7.3,0,0,0,5.37-3.5l4.17-9.29C84.68,76.38,80.75,73.28,77.23,72.55Z"/><path class="cls-20" d="M116.5,84.12h0c-7.24-9.71-20.19-12.55-30.29-6.3a35,35,0,0,0-2.94,2.06C76.76,85,73.12,93.71,73.59,102.24a29.81,29.81,0,0,0,11.47,21.63l31.63-8.15c2-5.67,2.84-11.1,3.47-18a23.25,23.25,0,0,0,.08-2.64A19,19,0,0,0,116.5,84.12Z"/><path class="cls-32" d="M81.22,97.72c.37-5.52,3.75-10.06,8.83-11.43L105.89,82c6.84-.78,11.41,8.12,11.85,15.38.5,8.07.81,16.58-.08,22.6-1.8,12.11-10.57,13.67-10.57,13.67V143l.16,15.39L84.71,141.22,81.18,97.87C81.18,97.66,81.2,98,81.22,97.72Z"/><path class="cls-20" d="M115.63,107.14a1.52,1.52,0,0,1-1.41,1.57,1.44,1.44,0,0,1-1.52-1.4,1.52,1.52,0,0,1,1.41-1.57A1.44,1.44,0,0,1,115.63,107.14Z"/><path class="cls-20" d="M115.79,102.38c-.18.21-1.3-.66-2.88-.65s-2.73.84-2.91.64.1-.46.61-.85a3.86,3.86,0,0,1,2.32-.76,3.69,3.69,0,0,1,2.29.77C115.71,101.93,115.88,102.29,115.79,102.38Z"/><path class="cls-20" d="M102,107.14a1.52,1.52,0,0,1-1.41,1.57,1.44,1.44,0,0,1-1.52-1.4,1.52,1.52,0,0,1,1.41-1.57A1.44,1.44,0,0,1,102,107.14Z"/><path class="cls-20" d="M101.09,102.7c-.18.2-1.29-.67-2.87-.66s-2.74.84-2.91.64.1-.46.6-.85a4,4,0,0,1,2.33-.76,3.68,3.68,0,0,1,2.29.78C101,102.24,101.18,102.6,101.09,102.7Z"/><path class="cls-20" d="M106,115.26a10.39,10.39,0,0,1,2.57-.49c.4,0,.78-.13.85-.42a2.4,2.4,0,0,0-.27-1.27c-.39-1-.78-2.11-1.2-3.24-1.67-4.62-2.88-8.42-2.7-8.49s1.67,3.62,3.34,8.24l1.15,3.26a2.67,2.67,0,0,1,.21,1.68,1,1,0,0,1-.66.62,2.3,2.3,0,0,1-.69.1A9.23,9.23,0,0,1,106,115.26Z"/><path class="cls-33" d="M91.91,129.37s3.72,8.31,15.18,7.15v-2.85A27.53,27.53,0,0,1,91.91,129.37Z"/><path class="cls-20" d="M100.53,96.11c-.16.45-1.74.24-3.59.48s-3.35.78-3.6.37c-.11-.19.15-.62.75-1.06a5.92,5.92,0,0,1,2.67-1,5.72,5.72,0,0,1,2.81.35C100.25,95.53,100.59,95.89,100.53,96.11Z"/><path class="cls-20" d="M114.13,96.34c-.28.38-1.37,0-2.68,0s-2.42.26-2.67-.13c-.11-.19.06-.57.54-.94a3.62,3.62,0,0,1,2.18-.62,3.54,3.54,0,0,1,2.13.76C114.1,95.76,114.25,96.15,114.13,96.34Z"/><path class="cls-32" d="M82.79,106.49c-.12-.34-6.09-2.62-6.17,4.09-.08,6.52,6.14,5.24,6.15,5S82.79,106.49,82.79,106.49Z"/><path class="cls-33" d="M80.89,113.14s-.1.08-.29.17a1,1,0,0,1-.8,0,2.86,2.86,0,0,1-1.21-2.54,3.81,3.81,0,0,1,.32-1.62,1.29,1.29,0,0,1,.81-.87.55.55,0,0,1,.63.32c.09.18.05.31.08.33s.13-.11.08-.38a.69.69,0,0,0-.23-.41.77.77,0,0,0-.6-.17,1.52,1.52,0,0,0-1.13,1,4,4,0,0,0-.39,1.81c0,1.31.66,2.55,1.54,2.83a1.13,1.13,0,0,0,1-.16C80.88,113.3,80.92,113.15,80.89,113.14Z"/><path class="cls-23" d="M80.19,114.29a1.27,1.27,0,0,0-1.4.95,1.35,1.35,0,0,0,.81,1.54,1.24,1.24,0,0,0,1.5-.76,1.36,1.36,0,0,0-.62-1.63"/><path class="cls-20" d="M80.48,114.39a1.79,1.79,0,0,1,.56.88,1.14,1.14,0,0,1-.25,1,1.1,1.1,0,0,1-1.14.35,1.2,1.2,0,0,1-.75-1,1.13,1.13,0,0,1,.36-1,1.67,1.67,0,0,1,.93-.38s-.09-.06-.29-.07a1.21,1.21,0,0,0-.76.29,1.31,1.31,0,0,0-.5,1.17,1.46,1.46,0,0,0,.92,1.24,1.34,1.34,0,0,0,1.43-.45,1.4,1.4,0,0,0-.23-2C80.59,114.39,80.49,114.38,80.48,114.39Z"/><path class="cls-33" d="M100,118.13a2.26,2.26,0,0,1,1.85-1.17,2.88,2.88,0,0,1,2.74,1.3,2,2,0,0,1,.18,1.39c-.09.25,0,.13-.19.3a5.26,5.26,0,0,1-2.06,1.47,2.17,2.17,0,0,1-2.38-.81A2.53,2.53,0,0,1,100,118.13Z"/><path class="cls-20" d="M100.2,115.86c.25,0,.33,1.76,1.84,3s3.31.92,3.33,1.17-.39.37-1.15.43a4.09,4.09,0,0,1-2.78-.88,3.93,3.93,0,0,1-1.43-2.5C99.91,116.31,100.08,115.85,100.2,115.86Z"/><path class="cls-20" d="M108.86,81.1a2.48,2.48,0,0,0-2.06-1c-11-1.25-22.37,4-29,13.23l1.76,11.27c-.75,1.41,2.76,4.23,4.28,4.13s2.7-1.51,3.24-3c1.06-2.94.45-6.71,2.63-8.85,1.22-1.22,3-1.52,4.63-1.9A23,23,0,0,0,103.09,91a16.12,16.12,0,0,0,5.73-7.92A2.62,2.62,0,0,0,108.86,81.1Z"/><path class="cls-22" d="M75.92,111.94a5.21,5.21,0,0,1-.6-1.18,22.65,22.65,0,0,1-1.17-3.44,27.21,27.21,0,0,1-.3-12,26.32,26.32,0,0,1,5-10.8,21.7,21.7,0,0,1,2.41-2.62,5.44,5.44,0,0,1,1-.82c.06.08-1.36,1.27-3.14,3.68a27.41,27.41,0,0,0-4.75,10.68,28.26,28.26,0,0,0,.16,11.79C75.18,110.19,76,111.9,75.92,111.94Z"/><polygon class="cls-20" points="83.63 410.04 87.26 443.13 100.97 440.93 101.9 408.31 83.63 410.04"/><path class="cls-20" d="M101,434.37s-9.21,8.25-14.33,2.19l-.26-1-4.79,27A3,3,0,0,0,83.43,466a2.55,2.55,0,0,0,2.78-.82c3.72-4.44,17.35-21.57,17.35-21.57l-.54-4.31a14.53,14.53,0,0,0-2-4.9Z"/><path class="cls-24" d="M103.13,440.35,83.91,466.08a2.58,2.58,0,0,0,2.38-.94c10.29-12.39,17.27-21.56,17.27-21.56Z"/><path class="cls-22" d="M89.1,453.29c-.15.09-.83-1.35-2.43-2s-3-.21-3-.39.29-.31.89-.45a3.88,3.88,0,0,1,2.37.27,4.16,4.16,0,0,1,1.86,1.59C89.09,452.85,89.16,453.26,89.1,453.29Z"/><path class="cls-22" d="M87.48,457.21c-.12.13-1-.72-2.39-1a19.2,19.2,0,0,0-2.57-.16,2.83,2.83,0,0,1,2.7-.45C86.78,455.94,87.61,457.12,87.48,457.21Z"/><path class="cls-22" d="M92.25,448.18c-.12.14-1.49-1.18-3.58-1.87s-3.92-.48-3.93-.67,1.86-.69,4.1.08A5.93,5.93,0,0,1,92.25,448.18Z"/><path class="cls-20" d="M92.25,441.36c0,.17-1.54-.37-3.41-.3s-3.34.68-3.4.51a5,5,0,0,1,3.38-1.13C90.84,440.37,92.33,441.22,92.25,441.36Z"/><path class="cls-20" d="M138,436.12c-.32-.51-3.2-11.59-3.2-11.59l17.76-5.11,2.52,16Z"/><path class="cls-20" d="M154.32,430.7l.6,2.82s19.54,8.42,19.8,12.51l-38.62.3.47-15C142.33,434.2,147.72,433.7,154.32,430.7Z"/><path class="cls-24" d="M136.1,446.33l.1-3.44,37,1s1.72.82,1.54,2.16Z"/><path class="cls-22" d="M155.06,433.63c0,.21-.95.32-1.87,1s-1.42,1.56-1.59,1.48.1-1.29,1.23-2.1S155.1,433.44,155.06,433.63Z"/><path class="cls-22" d="M159.12,435.47c0,.2-.77.56-1.41,1.45s-.81,1.83-1,1.82-.31-1.19.5-2.28S159.11,435.27,159.12,435.47Z"/><path class="cls-22" d="M161.45,440.83c-.17.05-.44-1,0-2.15s1.36-1.61,1.44-1.44-.46.8-.84,1.75S161.64,440.81,161.45,440.83Z"/><path class="cls-20" d="M125.94,236s9.8,46.46,18.09,100c6.81,44.06,9.83,91.77,9.83,91.77L133.79,429s-12.22-54.64-21.74-93.92c-8.78-36.23-15.92-55.24-15.92-55.24l-4-47.8Z"/><path class="cls-20" d="M70.58,226.73S53,251.88,54.46,278.14c.89,15.71,31,155.31,31,155.31l17.82-.65L97.56,284.52l6-48.55Z"/><path class="cls-20" d="M124.6,159a3.91,3.91,0,0,1,.09.78c0,.57.09,1.32.16,2.24.14,1.95.24,4.77.3,8.26.12,7-.19,16.64-.85,27.27s-1.22,20.25-1.35,27.23c-.07,3.48-.1,6.31-.07,8.26,0,.92,0,1.67,0,2.24a3.43,3.43,0,0,1,0,.79,4.39,4.39,0,0,1-.07-.78c0-.58-.06-1.32-.11-2.25-.09-1.95-.13-4.78-.11-8.27,0-7,.53-16.63,1.19-27.25s1-20.26,1-27.23c0-3.49,0-6.31-.11-8.26,0-.93,0-1.67,0-2.25A3.6,3.6,0,0,1,124.6,159Z"/><path class="cls-32" d="M183.56,160.4l-10.73,4.16-11.72,16.78,3.2,5.87,3.17-3.15s12.07-2.37,12.93-4.19a3.69,3.69,0,0,0-.12-3.37,8.36,8.36,0,0,0,.1-3.54,2.25,2.25,0,0,0-1.52-1.77,1.79,1.79,0,0,0,.76-2.36,3,3,0,0,0-1.74-2.12s7.2-3.62,7.83-4.65a.87.87,0,0,0-.07-1A1.73,1.73,0,0,0,183.56,160.4Z"/><path class="cls-32" d="M159.27,177.84l2.16-3.21,4.69-9,10.43-3s1.75.87-.67,4.16a6.13,6.13,0,0,1-5.83,2.62s.74,7.16-1.1,10.35-6.82,3.48-6.82,3.48Z"/><path class="cls-33" d="M169.07,180.32a2.84,2.84,0,0,0,.46-.71,11.28,11.28,0,0,0,.86-2.19,13,13,0,0,0-.29-7.81l-.17.32.37-.07a12,12,0,0,0,3.94-1.21,5.35,5.35,0,0,0,2.38-2.61,4.3,4.3,0,0,0,.33-2.47,1.88,1.88,0,0,0-.31-.85s.09.31.15.87a4.36,4.36,0,0,1-.44,2.3,5.18,5.18,0,0,1-2.28,2.37,12.53,12.53,0,0,1-3.83,1.14l-.37.06-.27,0,.1.28a13.27,13.27,0,0,1,.4,7.54A24.37,24.37,0,0,1,169.07,180.32Z"/><path class="cls-33" d="M178.58,171.55s-.38.15-1.07.41-1.68.61-2.9,1.11a10.49,10.49,0,0,0-2,1,2.22,2.22,0,0,0-.87,1,1.78,1.78,0,0,0,.21,1.51,2.54,2.54,0,0,0,1.09,1,2.26,2.26,0,0,0,1.47.09l.69-.12a6,6,0,0,0,.73-.18c.47-.15.94-.33,1.4-.52l1.25-.52-.14-.45a10.62,10.62,0,0,0-2.38,1.44l-1.05.76a10.71,10.71,0,0,0-1,.72,1.71,1.71,0,0,0-.59,1.24,1.17,1.17,0,0,0,.22.68,1.28,1.28,0,0,0,.5.38,4.34,4.34,0,0,0,2,.28,8.78,8.78,0,0,0,2.7-.76,4,4,0,0,0,.92-.47,4.83,4.83,0,0,0-1,.31,9.75,9.75,0,0,1-2.67.6,4.07,4.07,0,0,1-1.81-.31.73.73,0,0,1-.48-.71,1.23,1.23,0,0,1,.46-.91,11.05,11.05,0,0,1,1-.68l1.06-.75a10.38,10.38,0,0,1,2.28-1.37l-.13-.44-1.25.51c-.47.19-.92.37-1.38.52a4.07,4.07,0,0,1-.67.16l-.7.14a2,2,0,0,1-1.24-.05,2.17,2.17,0,0,1-.93-.82,1.3,1.3,0,0,1-.17-1.12,1.83,1.83,0,0,1,.7-.86,11,11,0,0,1,1.87-1c1.2-.53,2.19-.93,2.86-1.25A3.84,3.84,0,0,0,178.58,171.55Z"/><path class="cls-33" d="M177.77,166.8a7.27,7.27,0,0,0-2.21.82,16,16,0,0,0-2.23,1.35q-.62.43-1.23,1a2.4,2.4,0,0,0-1,1.55,1.28,1.28,0,0,0,.38,1,1.64,1.64,0,0,0,.8.42,5,5,0,0,0,1.55,0,17.17,17.17,0,0,0,2.49-.57,6.36,6.36,0,0,0,2.18-.92c0-.06-.85.27-2.25.6a23,23,0,0,1-2.47.46,4.51,4.51,0,0,1-1.42,0,1,1,0,0,1-.84-.92,2.06,2.06,0,0,1,.84-1.21c.4-.36.8-.68,1.18-1a21.57,21.57,0,0,1,2.15-1.41C177,167.2,177.8,166.87,177.77,166.8Z"/><path class="cls-22" d="M139.42,187.16l-10.77-36.5a10.19,10.19,0,0,0-6.44-6.94l-6.57-1.58,7.27,59.24,1.63,4.45c3.84,9.06,12.26,7.53,19.68,3.52.27-.14.53-.29.78-.44l21.72-18.5-7.19-13.69Z"/><path class="cls-20" d="M137,197.57c.13,0,.17-2.43.91-5.28s1.81-5,1.7-5a13.58,13.58,0,0,0-2.12,4.91A13.93,13.93,0,0,0,137,197.57Z"/><path class="cls-23" d="M71.88,161.07l7.27,71.77L119.44,236l3.21-2.9-1.11-54.2-14.48-38.6h0c-1.72,3.45-5,4.62-9,4.3a14.35,14.35,0,0,1-7.49-3l-6.66-5.06Z"/><path class="cls-22" d="M83.92,136.5,79,142.14,56,148l13.49,69-10.27,26.7a69.57,69.57,0,0,0-2.69,8.63l-6.33,26.19s21.8,6.28,27.41,2.85S90,244.61,92.1,236.7s5.19-31.41,3.74-43.93-5.15-26.56-6.4-32.93S83.92,136.5,83.92,136.5Z"/><path class="cls-22" d="M60.11,208.6l5.19-21.32L56,148s-4.37,3.29-7.27,15.36c-3,12.63-13.2,47.41-12.57,55.54s41.24,22.87,41.24,22.87L79,219.13Z"/><path class="cls-22" d="M107.09,135.3l3.18,5.2L123.5,144S127,162.48,127,167.53s-2,61.06-2,63.69,9.55,38.44,8.72,40.64-10.8,3.73-10.8,3.73-3.74-31-3.74-41.51-.42-36.47-2.49-49.21-9.56-44.37-9.56-44.37Z"/><path class="cls-20" d="M119.42,240a1.33,1.33,0,0,1,0-.26v-.77c0-.72,0-1.71,0-3,.06-2.61.14-6.32.24-10.87.2-9.19.55-21.87.77-35.88,0-1.75,0-3.48,0-5.18s-.17-3.36-.29-5c-.25-3.3-.5-6.47-.79-9.49s-.61-5.88-1-8.53a38.08,38.08,0,0,0-1.94-7.17,96,96,0,0,0-4.35-9.83c-.57-1.09-1-2-1.34-2.59-.14-.28-.25-.5-.35-.68a.89.89,0,0,1-.1-.24,2.09,2.09,0,0,1,.15.21c.1.18.23.39.39.65.34.57.83,1.43,1.43,2.55a85.65,85.65,0,0,1,4.52,9.78,37.68,37.68,0,0,1,2,7.23c.45,2.67.8,5.54,1.1,8.57s.56,6.2.82,9.49c.12,1.64.3,3.32.3,5.05s0,3.44,0,5.2c-.22,14-.63,26.7-.93,35.88-.17,4.55-.3,8.25-.4,10.87-.06,1.25-.11,2.23-.14,3,0,.31,0,.57-.05.77A1,1,0,0,1,119.42,240Z"/><path class="cls-20" d="M94.8,218.88a4.22,4.22,0,0,1-.12-.79c-.05-.52-.12-1.29-.18-2.28-.12-2-.24-4.85-.18-8.4,0-1.77.1-3.72.23-5.8a26.7,26.7,0,0,0-.78-6.52A111.14,111.14,0,0,0,89,180.69c-2-5-4.07-9.71-6-14a58.43,58.43,0,0,1-2.55-6.16,53.21,53.21,0,0,1-1.36-5.65c-.67-3.49-1-6.33-1.26-8.3-.12-1-.19-1.75-.24-2.27a4,4,0,0,1,0-.8,7.54,7.54,0,0,1,.14.78c.08.57.19,1.32.33,2.26.3,2,.72,4.79,1.43,8.26a54.5,54.5,0,0,0,1.41,5.59,59.9,59.9,0,0,0,2.58,6.08c1.94,4.25,4,9,6,14A108,108,0,0,1,94.25,195a26.46,26.46,0,0,1,.74,6.66c-.15,2.07-.25,4-.3,5.78-.1,3.54,0,6.4,0,8.38,0,.95.06,1.71.08,2.28A4.86,4.86,0,0,1,94.8,218.88Z"/><path class="cls-20" d="M154.39,217.15,143,233.36a2,2,0,0,1-2,.85L91.94,224.4a2.19,2.19,0,0,1-1.58-2.82l5.29-17.23A2.06,2.06,0,0,1,98,202.88L153.1,213.7A2.23,2.23,0,0,1,154.39,217.15Z"/><path class="cls-20" d="M48.68,210a4.76,4.76,0,0,1,1.65-1.41,9.59,9.59,0,0,1,9.91-.14,4.7,4.7,0,0,1,1.68,1.36c-.05.07-.7-.45-1.85-1a10.35,10.35,0,0,0-9.56.14C49.36,209.55,48.73,210.09,48.68,210Z"/><g class="cls-11"><polygon points="60.29 240.76 79.67 248.3 81.69 239.79 90.87 241.75 92.11 236.84 77.7 234.7 77.56 241.75 62.5 235.75 60.29 240.76"/></g><path class="cls-32" d="M78.88,220.94s3.87-3.46,5.07-4.25,5.27-3.61,7.11-3.31l1.85.29-1.66,5.17s14.86-2.34,16.89.2-2.21,3-4.43,3.32-9.33,1.56-9.33,1.56,18.56-2.15,19.86,0-1.81,2.63-1.81,2.63l-12.29,5.18-1.41.58-1.42,2s-5,3.71-6.62,3.22-13-2.79-13-2.79Z"/><path class="cls-33" d="M91.79,229.81a14,14,0,0,1,2.88-.93,70.17,70.17,0,0,1,7.13-1.44,64.77,64.77,0,0,1,7.24-.68,14.05,14.05,0,0,1,3,.05,17.29,17.29,0,0,1-3,.34c-1.85.17-4.39.43-7.19.85s-5.3.9-7.12,1.27A18.37,18.37,0,0,1,91.79,229.81Z"/><path class="cls-33" d="M93.48,233.59a7.32,7.32,0,0,1,2.66-1,7.41,7.41,0,0,1,2.79-.48,7.44,7.44,0,0,1-2.66,1A7.32,7.32,0,0,1,93.48,233.59Z"/><path class="cls-20" d="M126.65,159.84a3.5,3.5,0,0,1,.09.72c0,.53.08,1.22.14,2.07.13,1.8.22,4.41.28,7.64.11,6.46-.17,15.38-.78,25.2s-1.14,18.71-1.25,25.15c-.07,3.22-.09,5.83-.07,7.63v2.08a3.68,3.68,0,0,1,0,.72,3.61,3.61,0,0,1-.07-.72c0-.53-.06-1.22-.1-2.07-.08-1.81-.12-4.42-.1-7.65,0-6.45.49-15.36,1.1-25.18s1-18.71.94-25.16c0-3.22-.05-5.83-.11-7.63,0-.85,0-1.54-.05-2.07A4.07,4.07,0,0,1,126.65,159.84Z"/><path class="cls-20" d="M66.78,185a7.85,7.85,0,0,1-.09-1.44c0-.93-.06-2.27-.17-3.93a72.48,72.48,0,0,0-2-12.75,70.81,70.81,0,0,0-4.28-12.1c-.68-1.49-1.27-2.69-1.7-3.5a6.85,6.85,0,0,1-.6-1.3,7.38,7.38,0,0,1,.78,1.19c.49.78,1.13,2,1.86,3.43A62.86,62.86,0,0,1,65,166.77a62.89,62.89,0,0,1,1.86,12.87c.06,1.67.06,3,0,4A6.83,6.83,0,0,1,66.78,185Z"/></g></g></svg>